<?xml version="1.0" encoding="utf-8"?>
<!-- Generator: Adobe Illustrator 21.1.0, SVG Export Plug-In . SVG Version: 6.00 Build 0)  -->
<svg version="1.1" id="Calque_1" xmlns="http://www.w3.org/2000/svg" xmlns:xlink="http://www.w3.org/1999/xlink" x="0px" y="0px"
	 viewBox="0 0 197 30" style="enable-background:new 0 0 197 30;" xml:space="preserve">
<style type="text/css">
	.st0{fill:#2D2C2D;}
</style>
<path class="st0" d="M20.1,29.5l-4.8-12.3H8.6v-0.9h6.3L10.5,5L1,29.5H0L11.5,0L23,29.5H20.1z"/>
<path class="st0" d="M35.1,29.6c0,0-0.9,0-5.3,0V0.5c4,0,4.9,0,4.9,0c4.4,0,10.5,1.3,10.5,6.5c0,3-2.8,5.9-5.5,7
	c3.8,0.7,7.4,3,7.4,7.5C47.1,28,40.8,29.7,35.1,29.6z M37.1,14.7h-1.6v-0.8v0c1.2,0,1.3,0,1.3,0c4.5,0,5.7-4.2,5.7-6.4
	c0-5-4.1-6.1-8.1-6.1h-1.8v27.4c0.8,0,1.6,0,1.6,0c6.9,0,10.1-2.3,10.1-7.2C44.3,16.5,40.8,14.8,37.1,14.7z"/>
<path class="st0" d="M67.4,29.9c-8.6,0-14.5-6.7-14.5-14.9c0-8.2,5.9-14.8,14.5-14.8C76,0.1,81.9,6.8,81.9,15
	C81.9,23.2,76,29.9,67.4,29.9z M67.4,0.9C60.4,0.9,56,7.2,56,15c0,7.8,4.4,14.2,11.4,14.2c7,0,11.4-6.3,11.4-14.2
	C78.8,7.2,74.4,0.9,67.4,0.9z"/>
<path class="st0" d="M98.7,29.8c-5,0-9.9-3.2-9.9-9.4v-20h2.8v19.8c0,4,1,8.6,7,8.6c6.1,0,7.1-4.6,7.1-8.6V0.5h2.8v20
	C108.6,26.7,103.7,29.8,98.7,29.8z"/>
<path class="st0" d="M125.1,1.3v28.2h-2.8V1.3h-7.7V0.4h18.1v0.9H125.1z"/>
<path class="st0" d="M139.8,29.5V0.4h13.1v0.9h-10.2v11.8h9.2V14h-9.2v14.7h10.7v0.9H139.8z"/>
<path class="st0" d="M183.4,29.5L182,7.4L172.3,30l-9.9-22.2l-1.4,21.8H160L162,0l11.5,25.6l10.9-25.6l2,29.6H183.4z"/>
<path class="st0" d="M193.2,29.5v-29h2.8v29H193.2z"/>
</svg>
