<svg id="Calque_1" data-name="Calque 1" xmlns="http://www.w3.org/2000/svg" viewBox="0 0 214.38 379.6"><defs><style>.cls-1{fill:#fff;}.cls-2{fill:#1a171b;}.cls-3{fill:#31ab4d;}.cls-4{fill:#2ca948;}.cls-5{fill:#010101;}.cls-6{fill:#28a745;}.cls-7{fill:#39ae53;}.cls-8{fill:#151515;}.cls-9{fill:#4bb662;}.cls-10{fill:#d5eddc;}.cls-11{fill:#2c2c2c;}.cls-12{fill:#5ebe73;}.cls-13{fill:#fdfefd;}.cls-14{fill:#fcfdfc;}.cls-15{fill:#fdfdfd;}.cls-16{fill:#f7fbf8;}.cls-17{fill:#f9fcfa;}.cls-18{fill:#fbfdfb;}.cls-19{fill:#fbfbfa;}.cls-20{fill:#fbfcfb;}.cls-21{fill:#f8fcf9;}.cls-22{fill:#fafcfb;}.cls-23{fill:#f6fbf7;}.cls-24{fill:#f7fbf9;}.cls-25{fill:#f5faf7;}.cls-26{fill:#e4f3e8;}.cls-27{fill:#f0f8f2;}.cls-28{fill:#eaf6ee;}.cls-29{fill:#dff1e4;}.cls-30{fill:#c8e8d0;}.cls-31{fill:#df0b35;}.cls-32{fill:#fafdfb;}.cls-33{fill:#f6faf7;}.cls-34{fill:#f4faf6;}.cls-35{fill:#f8faf8;}.cls-36{fill:#eff8f2;}.cls-37{fill:#f1f8f3;}.cls-38{fill:#dcf0e1;}.cls-39{fill:#f9c9d3;}.cls-40{fill:#fdebef;}.cls-41{fill:#fce3e9;}.cls-42{fill:#fbd9e0;}.cls-43{fill:#fac5d0;}.cls-44{fill:#fbe0e6;}.cls-45{fill:#459447;}</style></defs><title>tshirt_mobile</title><path d="M167.82,131.45c-2,1.42-3.82,2.88-5.81,4.1a12.39,12.39,0,0,1-3.85,1.49c-2.31.49-3.73-1.19-2.71-3.28,1.11-2.28,2.53-4.4,3.82-6.6a29.61,29.61,0,0,0,1.52-2.61c.48-1,0-1.63-1.17-1.52-.8.08-1.6.16-2.39.26s-1.57.26-2.22.36c0,7.67-3.55,13.39-9.64,17.68a11.08,11.08,0,0,1-4,1.51c-2.68.58-4.82-1.37-4.94-4.45-.09-2.26,0-4.53,0-6.8-.34.66-.72,1.42-1.12,2.17a9.28,9.28,0,0,1-5.66,4.86c-2.81.84-4.6-.4-4.49-3.27.08-2.05.36-4.1.52-6.15.06-.8,0-1.6,0-2.41l-.51-.24c-1.2.84-2.45,1.62-3.59,2.53a26.86,26.86,0,0,0-8.12,11.61A12.81,12.81,0,0,1,112,143a8.51,8.51,0,0,1-.4-2.73,95,95,0,0,1,6.62-20.15c.93-2.12,2-4.19,2.8-6.45a4,4,0,0,0-.35.31c-6.26,7-12.5,14-18.8,20.89a2.91,2.91,0,0,0-.91,2.8c.44,2.28-.54,4.27-1.82,6.08a20.06,20.06,0,0,1-7.34,6.53,7.13,7.13,0,0,1-2.68.16c0-.85-.38-1.86,0-2.52a38.48,38.48,0,0,1,3.44-5.32c1.84-2.4,3.85-4.68,6-7.23A28.93,28.93,0,0,0,96.16,133c-2.19-1.7-4.56-3.19-6.64-5-3.75-3.3-3.16-7.24,1.31-9.6a10.61,10.61,0,0,1,8.38-.78c2.35.73,3.27,2,3.25,4.42,0,.9,0,1.79,0,2.69l-.56,0c0-1-.05-2.06,0-3.08a2.8,2.8,0,0,0-1.81-2.88,9.35,9.35,0,0,0-10.47,2c-1.72,1.93-1.76,3.66.09,5.44a34.36,34.36,0,0,0,3.76,3c2.06,1.5,4.16,2.94,6.43,4.54,2.62-3,5.44-6.05,8.15-9.24,4.45-5.23,8.82-10.52,13.26-15.76.72-.85,1.54-2.23,2.85-1.43s.17,2-.23,2.93c-3.27,7.47-6.42,15-8.46,22.88,0,.19-.08.39-.21,1.05a25.48,25.48,0,0,1,2.31-3,53.06,53.06,0,0,1,5.75-5c2-1.4,3.28-.63,3.27,1.77s-.24,5-.31,7.45c-.06,2.14,1,3,3,2.14a8.06,8.06,0,0,0,3.72-2.8,62.7,62.7,0,0,0,3.32-7.83c.3-.74.54-1.5.81-2.26l.65.1c0,.94,0,1.88,0,2.82-.08,3.65-.27,7.29-.21,10.94,0,2.67,1.77,3.76,4.34,3a7.14,7.14,0,0,0,1.94-.74,20.23,20.23,0,0,0,9.25-14.9c.18-1.37-.15-2.21-1.87-2.14a10.31,10.31,0,0,1-3.47-.55c-.55-.18-1.36-.93-1.3-1.32a2.37,2.37,0,0,1,1.29-1.59c1.92-.75,3.66.1,5,1.28a3.68,3.68,0,0,0,3.51.75,30.76,30.76,0,0,1,3.17-.48c2.09-.18,3.17,1.31,2.21,3.14-1.14,2.15-2.44,4.22-3.64,6.34a29,29,0,0,0-1.47,3c-.16.39-.26,1.13-.06,1.27a2.14,2.14,0,0,0,1.58.41,7.84,7.84,0,0,0,2.91-1.26,65.77,65.77,0,0,0,7.05-6.41c1-1.14,1.27-3,1.82-4.51,1.21-3.43,2.38-6.88,3.69-10.68l-8.49,2.08a7.44,7.44,0,0,1,1.41-.77c2-.65,4-1.29,6.1-1.82a2.24,2.24,0,0,0,1.72-1.61c.9-2.48,1.88-4.93,2.89-7.37.17-.4.67-.67,1-1,.2.44.6.89.57,1.31-.16,2.3-.43,4.6-.69,7.13,1.49-.39,2.94-.84,4.42-1.15,5.7-1.2,11.4-2.41,17.13-3.49.8-.15,2.43.3,2.47.61.17,1.45-1.31,1.09-2.1,1.24q-10.18,1.88-20.39,3.56a2.65,2.65,0,0,0-2.53,2.24,43.3,43.3,0,0,1-5.92,13.12,11.26,11.26,0,0,0-1.34,4.16,1.86,1.86,0,0,0,1.82,2.21c2.32.18,4.82.64,7,0,6.64-1.85,13.14-4.13,19.7-6.25,1.47-.48,2.92-1.06,4.43-1.4.58-.13,1.29.28,1.94.44-.38.6-.62,1.51-1.16,1.73a85.82,85.82,0,0,1-8.4,3.15c-5.06,1.53-10.16,3-15.3,4.23a15.71,15.71,0,0,1-8.75-.16A4.22,4.22,0,0,1,167.82,131.45Zm-68.7,6.64c-3.16,3.15-6.42,6.2-8.39,10.26C94.74,145.88,98.54,143.26,99.13,138.09Zm48.45-16.43-.1.6,3.89.6.08-.44C150.26,121.58,149.06,120.86,147.58,121.66Z" transform="translate(-27.81 -3)"/><path d="M159.6,73.37A26.16,26.16,0,0,0,153,87.28c-.18,1.25-.38,2.5-.67,3.73a4,4,0,0,1-.72,1.13c-.38-.31-1-.57-1.11-.94a47.58,47.58,0,0,1-1.14-6.51c-.19-2.57,0-5.16-.4-7.79-.46,1.25-.83,2.55-1.41,3.75-1.14,2.38-2.33,4.74-3.62,7-.31.55-1.1.84-1.67,1.25l-1.18-1.74-.86,1c-2.06,2.25-4.4,4-7.59,4.37-3.66.38-5.37-1.81-4.07-5.18,1.76-4.55,5.37-7.42,9.34-9.94a36.13,36.13,0,0,1,4.76-2.58,12.17,12.17,0,0,1,3-.46,28.26,28.26,0,0,0-4,1.54c-3.38,2-6.7,4.06-9.06,7.22a24.44,24.44,0,0,0-2.88,5.25c-.73,1.75.48,3.16,2.37,2.7A13.3,13.3,0,0,0,137,89a11.92,11.92,0,0,0,4.94-9.23,19.16,19.16,0,0,1,.69-3.12l.57,0c.2.46.6.93.57,1.38-.14,1.72-.39,3.43-.66,5.14a32.57,32.57,0,0,0-.59,4.69,16.18,16.18,0,0,0,4-7c.88-2.56,1.69-5.14,2.54-7.7l.7,0a13.59,13.59,0,0,1,.45,2.09c.25,4.06.41,8.13.68,12.19a15,15,0,0,0,.57,2.57c1-3.63,1.76-7.51,3.16-11.15.84-2.2,2.61-4.08,4.07-6a6.18,6.18,0,0,1,1.82-1.14c-.5,3.68-1,7.09-1.43,10.5a6.56,6.56,0,0,0-.09,1.27c.1,1.6.22,3.23,1.86,4.13a4.65,4.65,0,0,0,4.88-.31A8.57,8.57,0,0,0,170,80.41L167.62,83l-.3-.23,1.74-2.19a25.23,25.23,0,0,1-3.78.7,4.12,4.12,0,0,1-4.13-2.92,5.05,5.05,0,0,1,1.36-5.4c1.33-1.4,3.12-1.17,4.61-.3a48.64,48.64,0,0,1,4.53,3.37c1.06-.93,2.38-2.23,3.86-3.33a8.08,8.08,0,0,1,2.42-.79,7.86,7.86,0,0,1,.45,2.69c-.55,2.79-1.35,5.53-2,8.3a14.29,14.29,0,0,0-.18,2.16l.37.29a19.65,19.65,0,0,0,2.51-2,17.68,17.68,0,0,0,4-8,16.59,16.59,0,0,1,.75-2l.53.06c.09.56.21,1.11.25,1.68.22,2.84.35,5.69.68,8.52.09.74.67,1.84,1.23,2s1.57-.53,2.11-1.09a23.86,23.86,0,0,0,5.06-9.28c1.07-3.19,1.83-6.48,2.77-9.86l-9.5.45,0-.2c1.1-.16,2.2-.35,3.3-.48,2-.24,4-.39,6-.72a1.86,1.86,0,0,0,1.17-1.07c.66-1.83,1.19-3.72,1.78-5.58a23.67,23.67,0,0,1,1-2.84c.15-.32.69-.47,1.06-.7.19.38.61.8.55,1.13-.44,2.12-1,4.22-1.5,6.32-.16.66-.39,1.3-.67,2.22,2.94-.52,5.65-1,8.37-1.48,5.59-.92,11.19-1.84,16.8-2.68a6.78,6.78,0,0,1,2.2.44,6.67,6.67,0,0,1-2,1.16q-7.76,1.3-15.56,2.4c-3,.42-6,.66-8.93,1.07-.53.07-1.33.46-1.46.87a111.23,111.23,0,0,0-3.58,11.63,21.46,21.46,0,0,0,.05,7.24c.32,2.37,2,3.19,4.27,2.36a14.6,14.6,0,0,0,6-4.51c-.35-.22-.56-.38-.8-.5-2.73-1.38-3.55-2.52-3.28-4.84.34-2.93,1.68-5.29,4.53-6.43a3.08,3.08,0,0,1,4.43,2.71,29.6,29.6,0,0,1-1.17,6.29,14.32,14.32,0,0,1-.88,2.09c3,.06,5.81.33,8.55.13,5.88-.43,11.74-1.13,17.61-1.64a51,51,0,0,1,7.41-.09,17.35,17.35,0,0,1-8.46,2.65c-4.33.36-8.66.81-13,.86-4.06,0-8.12-.39-12.19-.55a2.06,2.06,0,0,0-1.41.56c-2.12,2.22-4.39,4.22-7.47,5a4.61,4.61,0,0,1-6-3.32,43.94,43.94,0,0,1-.79-4.66c-.64.95-1.18,1.89-1.86,2.72a16.57,16.57,0,0,1-2.55,2.62c-1.72,1.32-3.39.81-4-1.27a32.24,32.24,0,0,1-.62-4.7c-.07-.57-.09-1.14-.16-2a40.38,40.38,0,0,1-2.48,4.1A17.81,17.81,0,0,1,178,85.5a1.74,1.74,0,0,1-2.89-1.91c.46-2.21,1.19-4.37,1.76-6.56.35-1.33.6-2.69.9-4l-.52-.24c-1.73,1.69-3.48,3.37-5.16,5.1-.23.24-.21.78-.2,1.18a10.7,10.7,0,0,1-7.3,10C161,90.11,157.95,88,158,84.2a39.25,39.25,0,0,1,.45-5.36C158.68,77.15,159.14,75.48,159.6,73.37Zm47.48,7.83c.69-2.41,1.47-4.59,1.92-6.83.38-1.89-1-3-2.6-2.37-1.89.73-3.6,3.61-3.42,5.83S205,80.45,207.09,81.21Zm-40.86-1a30.19,30.19,0,0,0,3.09-1.82,1.63,1.63,0,0,0,.3-1.55,6.48,6.48,0,0,0-4.66-3.31,2.22,2.22,0,0,0-1.5.37c-1,.61-1.54,2.82-1.12,4C162.84,79.44,163.95,80.11,166.22,80.22Z" transform="translate(-27.81 -3)"/><path d="M45,104.8a4.64,4.64,0,0,1,.1-1.42C48.3,95.55,51.66,87.79,56.89,81a15.7,15.7,0,0,1,2.71-2.7c1.58-1.25,2.81-.74,3.24,1.21.13.6.23,1.2.36,1.9,1.18-1.22,2.18-2.4,3.32-3.41,1.5-1.32,2.84-.86,3.23,1.1a5.65,5.65,0,0,1,0,2.66c-.95,3-.27,6,.22,9,.38,2.25,2.11,2.93,4,1.58,3.12-2.25,5-5.52,6.68-8.81,1-2,1.72-4.09,2.63-6.11.2-.44.69-.76,1.05-1.13.12.53.48,1.14.32,1.58C83,82.61,83,87.55,82.6,92.44c-.11,1.27,0,2.56,0,3.84l.68.32a28,28,0,0,0,3.15-2.73,29.64,29.64,0,0,0,5.46-10.51,8.07,8.07,0,0,1,.64-1.78,6.46,6.46,0,0,1,1.24-1.17c.22.47.66,1,.61,1.41C94,85.9,93.46,90,93,94.06c-.06.51-.19,1-.33,1.79,1.45-.58,2.68-1.18,4-1.56a8.86,8.86,0,0,1,3-.36c1,.06,1.31.81.6,1.54a6.09,6.09,0,0,1-2.4,1.76c-4.74,1.35-7.31,4.39-9.21,8.9a43.58,43.58,0,0,1-14.23,18.32,19.26,19.26,0,0,1-4.15,2.37c-1.86.76-3.58-.32-3.35-2.27a20.71,20.71,0,0,1,1.76-6.65c3.45-7,9-12.31,15.38-16.77,1.84-1.28,3.79-2.4,5.67-3.62.44-.28,1.07-.59,1.18-1,1.05-3.9,2-7.82,2.77-11.71-1.69,2.89-3.26,5.86-5.1,8.65a12.81,12.81,0,0,1-3.39,3.33,3.5,3.5,0,0,1-2.91.53,3.28,3.28,0,0,1-1.15-2.67c.2-3.16.69-6.29,1.07-9.44,0-.2.06-.4.14-1C81,86,80,87.66,78.76,89.06a25.34,25.34,0,0,1-4.46,4.29c-2.39,1.66-4.82.39-5.25-2.49a11.72,11.72,0,0,0-.58-2.65c-.57,1.79-1.13,3.58-1.72,5.37a4.57,4.57,0,0,1-.56,1.3,3.62,3.62,0,0,1-1,.67c-.13-.37-.43-.77-.36-1.09.32-1.33.76-2.62,1.15-3.93.86-2.93,1.77-5.85,2.53-8.81a14.27,14.27,0,0,0,0-3.19,8.85,8.85,0,0,0-1.27.75c-2.51,2.36-4.63,4.93-5.46,8.39a33.2,33.2,0,0,1-2,5.5c-.21.49-1,.75-1.51,1.11-.11-.59-.45-1.27-.28-1.77.69-2,1.66-3.89,2.29-5.9a42.67,42.67,0,0,0,1.21-5.52,5.1,5.1,0,0,0-.31-1.67C57.12,81.79,45.83,99.77,45,104.8Zm43.55-2.5-.57-.58c-3.63,2.84-7.38,5.55-10.85,8.57a27.92,27.92,0,0,0-7.71,10.59,24,24,0,0,0-.86,3.53l.56.25C77.87,119.14,84,111.37,88.54,102.31Z" transform="translate(-27.81 -3)"/><path d="M108.35,109.53c12.49-9,18.33-21.4,19-36.44-.27.33-.57.68-.86,1.05a41.81,41.81,0,0,1-9.61,9.06,21.07,21.07,0,0,1-2.38,1.29c-1.36.68-2.17.21-2.49-1.28.77,1.48,1.75,1.21,2.88.49a37.66,37.66,0,0,0,13.24-15c.66-1.28.69-2.87,1.2-4.24.21-.56.95-.93,1.44-1.38a7,7,0,0,1,.6,1.93,3.56,3.56,0,0,1-.58,1.79c-2,3.23-2,6.86-2.25,10.41C127.78,87.48,125,97,117.79,104.78a63,63,0,0,1-7.08,6.17c-.93.74-2.2,1.32-3.39.35a3.11,3.11,0,0,1-.76-3.52,27,27,0,0,1,1.83-4.71A63.22,63.22,0,0,1,121.1,86.4c.94-.9,1.93-1.89,3.8-1.35-.41.58-.71,1.08-1.09,1.52-3.9,4.57-8,9-11.65,13.76-1.76,2.3-2.7,5.22-4,7.88a2.42,2.42,0,0,0-.11.93C108.08,109.21,108.19,109.29,108.35,109.53Z" transform="translate(-27.81 -3)"/><path d="M112,83.22c.32,1.49,1.13,2,2.49,1.28a21.07,21.07,0,0,0,2.38-1.29,41.81,41.81,0,0,0,9.61-9.06c.29-.37.59-.72.86-1.05-.7,15-6.54,27.39-19,36.44-.16-.24-.27-.32-.27-.4a2.42,2.42,0,0,1,.11-.93c1.28-2.65,2.22-5.58,4-7.88,3.65-4.76,7.75-9.19,11.65-13.76.37-.44.67-.93,1.09-1.52-1.87-.54-2.86.45-3.8,1.35a63.22,63.22,0,0,0-12.71,16.67,27,27,0,0,0-1.83,4.71,3.11,3.11,0,0,0,.76,3.52c1.19,1,2.46.4,3.39-.35a63,63,0,0,0,7.08-6.17c7.19-7.78,10-17.3,10.78-27.57.27-3.56.29-7.19,2.25-10.41A3.56,3.56,0,0,0,131.4,65a7,7,0,0,0-.6-1.93c-.5.45-1.23.82-1.44,1.38-.52,1.37-.54,3-1.2,4.24a37.66,37.66,0,0,1-13.24,15C113.78,84.43,112.8,84.7,112,83.22Z" transform="translate(-27.81 -3)"/><path d="M134.18,55.09A23.78,23.78,0,0,0,139,51.62a58.78,58.78,0,0,0,4.39-5.44c0,1,0,1.86,0,2.69,0,1.7.77,2.67,1.92,2.61s2.11-1.39,1.73-3.2l-1.2,2.26-.74-.4c0-1.44-.06-2.88,0-4.32.2-4,2.19-7.57,3.49-11.28a13.48,13.48,0,0,0,.62-2.44c0-.26-.31-.57-.49-.86-.28.19-.7.31-.83.58a32.1,32.1,0,0,0-1.26,3.08c-1.83,5.19-3.71,10.38-7.17,14.77a34.33,34.33,0,0,1-5.21,4.8,1.77,1.77,0,0,1-1.69-.11c-.32-.26-.18-1.05-.25-1.61-.24.57-.56,1.5-.27,1.77C132.6,54.94,133.73,55.35,134.18,55.09Z" transform="translate(-27.81 -3)"/><path d="M158.95,38.2c2.09,1.48,4.27,2.83,6.29,4.39,1.41,1.1,1.45,2,.23,3.21a12.68,12.68,0,0,1-9.33,3.52c-.26,1.35.67,1.88,1.72,1.71,3.31-.53,6.47-1.56,8.86-4.07,1.81-1.9,1.71-4-.3-5.66a41.79,41.79,0,0,0-3.93-2.74c-1.92-1.25-4-2.34-5.79-3.69-2.58-1.9-2.37-4.06.64-5.2A26.49,26.49,0,0,1,164.59,28c3.75-.28,4.3.48,3.8,4,1.18-2.26.71-4-1.44-4.39a16.12,16.12,0,0,0-11.31,1.65c-2.58,1.45-2.78,3.88-.62,5.92A35.58,35.58,0,0,0,158.95,38.2Z" transform="translate(-27.81 -3)"/><path d="M202.8,125.91c-1.51.34-3,.93-4.43,1.4-6.56,2.12-13.07,4.41-19.7,6.25-2.15.6-4.65.14-7,0a1.86,1.86,0,0,1-1.82-2.21,11.26,11.26,0,0,1,1.34-4.16A43.3,43.3,0,0,0,177.14,114a2.65,2.65,0,0,1,2.53-2.24q10.21-1.68,20.39-3.56c.79-.15,2.26.22,2.1-1.24,0-.31-1.67-.76-2.47-.61-5.72,1.08-11.43,2.29-17.13,3.49-1.48.31-2.93.76-4.42,1.15.26-2.53.52-4.83.69-7.13,0-.42-.37-.87-.57-1.31-.35.33-.85.6-1,1-1,2.44-2,4.89-2.89,7.37a2.24,2.24,0,0,1-1.72,1.61c-2.05.53-4.08,1.17-6.1,1.82a7.44,7.44,0,0,0-1.41.77l8.49-2.08c-1.31,3.8-2.48,7.25-3.69,10.68-.54,1.54-.79,3.37-1.82,4.51a65.77,65.77,0,0,1-7.05,6.41,7.84,7.84,0,0,1-2.91,1.26,2.14,2.14,0,0,1-1.58-.41c-.2-.14-.1-.88.06-1.27a29,29,0,0,1,1.47-3c1.19-2.12,2.5-4.19,3.64-6.34,1-1.83-.12-3.32-2.21-3.14a30.77,30.77,0,0,0-3.17.48,3.68,3.68,0,0,1-3.51-.75c-1.36-1.18-3.11-2-5-1.28a2.37,2.37,0,0,0-1.29,1.59c-.05.39.75,1.15,1.3,1.32a10.31,10.31,0,0,0,3.47.55c1.71-.07,2.05.77,1.87,2.14a20.23,20.23,0,0,1-9.25,14.9,7.14,7.14,0,0,1-1.94.74c-2.57.74-4.29-.35-4.34-3-.06-3.64.13-7.29.21-10.94,0-.94,0-1.88,0-2.82l-.65-.1c-.27.75-.51,1.52-.81,2.26a62.7,62.7,0,0,1-3.32,7.83,8.06,8.06,0,0,1-3.72,2.8c-2,.88-3.08,0-3-2.14.07-2.48.3-5,.31-7.45s-1.29-3.18-3.27-1.77a53.06,53.06,0,0,0-5.75,5,25.48,25.48,0,0,0-2.31,3c.13-.66.16-.86.21-1.05,2-7.91,5.18-15.42,8.46-22.88.4-.9,1.57-2.12.23-2.93s-2.13.58-2.85,1.43c-4.44,5.24-8.81,10.53-13.26,15.76-2.71,3.18-5.53,6.28-8.15,9.24-2.27-1.6-4.37-3-6.43-4.54a34.36,34.36,0,0,1-3.76-3c-1.84-1.78-1.8-3.51-.09-5.44a9.35,9.35,0,0,1,10.47-2,2.8,2.8,0,0,1,1.81,2.88c-.06,1,0,2.05,0,3.08l.56,0c0-.9,0-1.79,0-2.69,0-2.4-.9-3.69-3.25-4.42a10.61,10.61,0,0,0-8.38.78c-4.46,2.36-5.06,6.31-1.31,9.6,2.07,1.82,4.45,3.31,6.64,5a28.93,28.93,0,0,1,2.35,2.27c-2.11,2.54-4.12,4.82-6,7.23a38.48,38.48,0,0,0-3.44,5.32c-.35.65,0,1.67,0,2.52a7.13,7.13,0,0,0,2.68-.16,20.06,20.06,0,0,0,7.34-6.53c1.28-1.8,2.26-3.8,1.82-6.08a2.91,2.91,0,0,1,.91-2.8c6.3-6.93,12.54-13.92,18.8-20.89a4,4,0,0,1,.35-.31c-.83,2.26-1.87,4.33-2.8,6.45a95,95,0,0,0-6.62,20.15A8.51,8.51,0,0,0,112,143a12.81,12.81,0,0,0,1.44-2.23,26.86,26.86,0,0,1,8.12-11.61c1.14-.91,2.39-1.69,3.59-2.53l.51.24c0,.8.05,1.61,0,2.41-.15,2.05-.44,4.1-.52,6.15-.11,2.86,1.68,4.11,4.49,3.27a9.28,9.28,0,0,0,5.66-4.86c.4-.75.78-1.51,1.12-2.17,0,2.27-.07,4.54,0,6.8.13,3.09,2.26,5,4.94,4.45a11.08,11.08,0,0,0,4-1.51c6.09-4.3,9.62-10,9.64-17.68.64-.11,1.43-.25,2.22-.36s1.6-.19,2.39-.26c1.16-.11,1.65.47,1.17,1.52a29.61,29.61,0,0,1-1.52,2.61c-1.29,2.19-2.71,4.32-3.82,6.6-1,2.09.4,3.77,2.71,3.28a12.39,12.39,0,0,0,3.85-1.49c2-1.22,3.83-2.68,5.81-4.1a4.22,4.22,0,0,0,3.32,3.86,15.71,15.71,0,0,0,8.75.16c5.14-1.25,10.23-2.7,15.3-4.23a85.82,85.82,0,0,0,8.4-3.15c.54-.23.78-1.14,1.16-1.73C204.09,126.19,203.38,125.78,202.8,125.91Z" transform="translate(-27.81 -3)"/><path d="M97.79,97.23a6.09,6.09,0,0,0,2.4-1.76c.71-.73.39-1.48-.6-1.54a8.86,8.86,0,0,0-3,.36c-1.29.38-2.52,1-4,1.56.15-.77.27-1.27.33-1.79.49-4.08,1-8.16,1.4-12.25,0-.44-.4-.94-.61-1.41a6.46,6.46,0,0,0-1.24,1.17,8.07,8.07,0,0,0-.64,1.78,29.64,29.64,0,0,1-5.46,10.51,28,28,0,0,1-3.15,2.73l-.68-.32c0-1.28-.1-2.57,0-3.84.44-4.88.4-9.83,2-14.55.15-.44-.2-1-.32-1.58-.36.37-.85.69-1.05,1.13-.91,2-1.6,4.15-2.63,6.11-1.72,3.29-3.56,6.56-6.68,8.81-1.87,1.35-3.6.66-4-1.58-.5-3-1.17-6-.22-9a5.65,5.65,0,0,0,0-2.66c-.39-2-1.73-2.42-3.23-1.1-1.15,1-2.14,2.18-3.32,3.41-.13-.7-.23-1.3-.36-1.9-.43-1.95-1.66-2.45-3.24-1.21A15.7,15.7,0,0,0,56.89,81c-5.23,6.79-8.59,14.55-11.8,22.38a4.64,4.64,0,0,0-.1,1.42c.84-5,12.13-23,16.3-25.38a5.1,5.1,0,0,1,.31,1.67,42.67,42.67,0,0,1-1.21,5.52c-.64,2-1.6,3.91-2.29,5.9-.17.5.17,1.18.28,1.77.52-.36,1.29-.62,1.51-1.11a33.2,33.2,0,0,0,2-5.5c.83-3.47,2.95-6,5.46-8.39a8.85,8.85,0,0,1,1.27-.75,14.27,14.27,0,0,1,0,3.19c-.76,3-1.67,5.88-2.53,8.81-.39,1.31-.83,2.61-1.15,3.93-.08.32.23.73.36,1.09a3.62,3.62,0,0,0,1-.67,4.57,4.57,0,0,0,.56-1.3c.58-1.79,1.15-3.58,1.72-5.37a11.72,11.72,0,0,1,.58,2.65c.43,2.88,2.86,4.15,5.25,2.49a25.34,25.34,0,0,0,4.46-4.29c1.22-1.4,2.19-3,3.49-4.85-.08.59-.11.79-.14,1-.38,3.14-.86,6.28-1.07,9.44a3.28,3.28,0,0,0,1.15,2.67,3.5,3.5,0,0,0,2.91-.53,12.81,12.81,0,0,0,3.39-3.33c1.84-2.79,3.42-5.76,5.1-8.65-.77,3.89-1.72,7.81-2.77,11.71-.11.41-.74.71-1.18,1-1.88,1.22-3.84,2.33-5.67,3.62-6.38,4.46-11.93,9.74-15.38,16.77a20.71,20.71,0,0,0-1.76,6.65c-.23,1.95,1.49,3,3.35,2.27a19.26,19.26,0,0,0,4.15-2.37,43.58,43.58,0,0,0,14.23-18.32C90.48,101.62,93.05,98.58,97.79,97.23Z" transform="translate(-27.81 -3)"/><path d="M234.78,80.32c-5.87.51-11.73,1.22-17.61,1.64-2.74.2-5.52-.07-8.55-.13a14.32,14.32,0,0,0,.88-2.09,29.6,29.6,0,0,0,1.17-6.29,3.08,3.08,0,0,0-4.43-2.71c-2.85,1.14-4.19,3.5-4.53,6.43-.27,2.32.55,3.46,3.28,4.84.23.12.44.28.8.5a14.6,14.6,0,0,1-6,4.51c-2.25.83-4,0-4.27-2.36a21.46,21.46,0,0,1-.05-7.24,111.23,111.23,0,0,1,3.58-11.63c.14-.42.93-.8,1.46-.87,3-.41,6-.65,8.93-1.07q7.79-1.11,15.56-2.4a6.67,6.67,0,0,0,2-1.16,6.78,6.78,0,0,0-2.2-.44c-5.61.84-11.2,1.76-16.8,2.68-2.72.45-5.43,1-8.37,1.48.28-.92.5-1.56.67-2.22.52-2.1,1.06-4.2,1.5-6.32.07-.33-.35-.75-.55-1.13-.36.23-.91.37-1.06.7a23.67,23.67,0,0,0-1,2.84c-.59,1.86-1.11,3.74-1.78,5.58a1.86,1.86,0,0,1-1.17,1.07c-2,.32-4,.47-6,.72-1.1.13-2.2.32-3.3.48l0,.2,9.5-.45c-.93,3.37-1.69,6.67-2.77,9.86a23.86,23.86,0,0,1-5.06,9.28c-.54.56-1.53,1.24-2.11,1.09s-1.15-1.25-1.23-2c-.33-2.83-.46-5.68-.68-8.52,0-.56-.17-1.12-.25-1.68l-.53-.06a16.59,16.59,0,0,0-.75,2,17.68,17.68,0,0,1-4,8,19.65,19.65,0,0,1-2.51,2l-.37-.29a14.29,14.29,0,0,1,.18-2.16c.65-2.77,1.45-5.51,2-8.3a7.86,7.86,0,0,0-.45-2.69,8.08,8.08,0,0,0-2.42.79c-1.48,1.1-2.8,2.4-3.86,3.33a48.64,48.64,0,0,0-4.53-3.37c-1.49-.87-3.28-1.1-4.61.3a5.05,5.05,0,0,0-1.36,5.4,4.12,4.12,0,0,0,4.13,2.92,25.23,25.23,0,0,0,3.78-.7l-1.74,2.19.3.23L170,80.41a8.57,8.57,0,0,1-4.32,6.87,4.65,4.65,0,0,1-4.88.31c-1.64-.9-1.76-2.53-1.86-4.13a6.56,6.56,0,0,1,.09-1.27c.46-3.41.93-6.82,1.43-10.5a6.18,6.18,0,0,0-1.82,1.14c-1.46,1.94-3.23,3.82-4.07,6-1.4,3.64-2.16,7.52-3.16,11.15a15,15,0,0,1-.57-2.57c-.27-4.06-.43-8.13-.68-12.19a13.59,13.59,0,0,0-.45-2.09l-.7,0c-.84,2.57-1.65,5.15-2.54,7.7a16.18,16.18,0,0,1-4,7A32.57,32.57,0,0,1,143,83.1c.27-1.71.52-3.42.66-5.14,0-.44-.36-.92-.57-1.38l-.57,0a19.16,19.16,0,0,0-.69,3.12A11.92,11.92,0,0,1,137,89a13.3,13.3,0,0,1-4.74,2.11c-1.89.46-3.1-.95-2.37-2.7a24.44,24.44,0,0,1,2.88-5.25c2.36-3.16,5.68-5.26,9.06-7.22a28.26,28.26,0,0,1,4-1.54,12.17,12.17,0,0,0-3,.46,36.13,36.13,0,0,0-4.76,2.58c-4,2.52-7.58,5.39-9.34,9.94-1.3,3.37.41,5.55,4.07,5.18,3.19-.33,5.53-2.12,7.59-4.37l.86-1,1.18,1.74c.57-.41,1.36-.7,1.67-1.25,1.29-2.3,2.49-4.66,3.62-7,.57-1.2.94-2.5,1.41-3.75.35,2.64.21,5.23.4,7.79a47.58,47.58,0,0,0,1.14,6.51c.08.37.72.63,1.11.94a4,4,0,0,0,.72-1.13c.28-1.23.49-2.48.67-3.73a26.16,26.16,0,0,1,6.57-13.91c-.46,2.11-.92,3.77-1.18,5.47A39.24,39.24,0,0,0,158,84.2c0,3.75,3,5.91,6.62,4.84a10.7,10.7,0,0,0,7.3-10c0-.4,0-.94.2-1.18,1.68-1.73,3.43-3.41,5.16-5.1l.52.24c-.3,1.34-.55,2.7-.9,4-.57,2.19-1.3,4.35-1.76,6.56A1.74,1.74,0,0,0,178,85.5a17.81,17.81,0,0,0,3.25-3.24,40.38,40.38,0,0,0,2.48-4.1c.07.87.1,1.44.16,2a32.24,32.24,0,0,0,.62,4.7c.56,2.08,2.24,2.59,4,1.27A16.57,16.57,0,0,0,191,83.51c.68-.83,1.22-1.77,1.86-2.72a43.94,43.94,0,0,0,.79,4.66,4.61,4.61,0,0,0,6,3.32c3.08-.81,5.35-2.81,7.47-5a2.06,2.06,0,0,1,1.41-.56c4.07.16,8.13.6,12.19.55,4.34-.05,8.67-.51,13-.86a17.35,17.35,0,0,0,8.46-2.65A51,51,0,0,0,234.78,80.32Z" transform="translate(-27.81 -3)"/><path d="M78.33,12.89q-3.48,18.28-7,36.56c-.9,4.72-1.79,9.44-2.6,14.17-.08.47.4,1,.62,1.55.46-.39,1.15-.69,1.33-1.18a31,31,0,0,0,1.47-5.17A67.77,67.77,0,0,1,82,33.55c.38-.6.84-1.16,1.37-1.89.23.52.47.8.47,1.08,0,2.31,0,4.62-.15,6.92-.42,5.31-1,10.61-1.41,15.92-.12,1.77.39,3.65,2.42,4.22,1.89.53,3.21-.8,4.1-2.15a42.3,42.3,0,0,0,3.92-7.06c1.21-2.95,1.95-6.08,2.89-9.13.06,3.36-.2,6.71-.3,10.06-.07,2.52,0,5.06.16,7.58a1.58,1.58,0,0,0,1,1.13c.81.14,2.14-1.56,2.17-2.72l-2,1.8c0-.85,0-1.35,0-1.86,0-6.62,0-13.23,0-19.85a9.62,9.62,0,0,0-.4-1.93l-.66-.06A17.11,17.11,0,0,0,94.5,38.1c-.71,2.71-1.29,5.45-2,8.16A28.39,28.39,0,0,1,87.7,57a8.49,8.49,0,0,1-2.46,1.51c-.39-.86-1.16-1.73-1.12-2.57.27-5.8.78-11.59,1-17.39a30.66,30.66,0,0,0-.44-6.74c-.34-1.92-1.7-2.23-3.12-.84A18.07,18.07,0,0,0,79,34.4c-1,1.61-1.8,3.33-2.69,5l-.25-.11c0-.31,0-.63.07-.94.62-4.71,1.31-9.42,1.85-14.14.51-4.41.85-8.83,1.32-13.24.06-.58.3-1.41.72-1.63,1.46-.74,3.06-1.2,4.54-1.9A6.53,6.53,0,0,0,86,6.08c-.53-.19-1.09-.58-1.59-.53-1.47.17-2.91.51-4.59.83l.42-3L79.8,3c.6,3.76-2.11,4.15-4.46,4.9L75.19,8c-8.54,3.67-17,7.46-25.65,11C43.84,21.26,38,23.25,32.15,25.29a29.1,29.1,0,0,1-4.35.84l.14.49C45.7,23.73,61.64,15.38,78.65,9.89,78.54,10.93,78.51,11.92,78.33,12.89Z" transform="translate(-27.81 -3)"/><path d="M56.18,37.12c-1.29,8.35-2.48,16.72-3.73,25.08-.38,2.56-.85,5.1-1.17,7.67-.05.41.49.9.75,1.35.46-.27,1.09-.44,1.35-.85a5.46,5.46,0,0,0,.72-2.08c.68-4.65,1.47-9.3,1.92-14,1-10.86,1.91-21.74,2.84-32.61a1.81,1.81,0,0,0-.1.35C57.87,27.06,57,32.08,56.18,37.12Z" transform="translate(-27.81 -3)"/><path d="M59.12,21.06H58.9l-.05.63C58.93,21.48,59,21.27,59.12,21.06Z" transform="translate(-27.81 -3)"/><path d="M109.81,42.89c1.71,1.19,3.56,2.17,5.23,3.4,1.52,1.12,1.48,2,0,3.19a18.39,18.39,0,0,1-7.9,3.32c-.16,0-.36-.09-.88-.23L110,48.74c-2-.07-4.54,2-4.87,3.62-.26,1.25.39,2.15,1.75,2a15.74,15.74,0,0,0,10.06-4.74,2.66,2.66,0,0,0-.29-4.08,23.62,23.62,0,0,0-3.09-2.26c-2.11-1.35-4.39-2.48-6.35-4-2.62-2-2.41-4.45.48-6.11A11.48,11.48,0,0,1,117,32a1.74,1.74,0,0,1,1.45,2.09c-.15,1.52-.27,3-.4,4.55a18.83,18.83,0,0,0,1.11-5.11,2.69,2.69,0,0,0-1.24-2c-3.08-1.78-9.31-1-12,1.34-2.19,1.91-2.48,4.46-.47,6.54A29,29,0,0,0,109.81,42.89Z" transform="translate(-27.81 -3)"/><path d="M156.13,49.32a12.68,12.68,0,0,0,9.33-3.52c1.22-1.18,1.18-2.11-.23-3.21-2-1.57-4.2-2.91-6.29-4.39a35.58,35.58,0,0,1-3.94-3c-2.16-2-2-4.47.62-5.92a16.12,16.12,0,0,1,11.31-1.65c2.16.43,2.62,2.13,1.44,4.39.5-3.51-.05-4.27-3.8-4a26.49,26.49,0,0,0-7.28,1.63c-3,1.14-3.22,3.29-.64,5.2,1.84,1.36,3.87,2.45,5.79,3.69a41.79,41.79,0,0,1,3.93,2.74c2,1.67,2.11,3.76.3,5.66-2.39,2.51-5.54,3.54-8.86,4.07C156.8,51.2,155.87,50.67,156.13,49.32Z" transform="translate(-27.81 -3)"/><path d="M145.88,50.54l1.2-2.26c.38,1.81-.62,3.13-1.73,3.2s-1.87-.91-1.92-2.61c0-.82,0-1.65,0-2.69A58.77,58.77,0,0,1,139,51.62a23.78,23.78,0,0,1-4.85,3.47c-.45.26-1.57-.15-2.07-.6-.3-.27,0-1.2.27-1.77.07.56-.07,1.36.25,1.61a1.77,1.77,0,0,0,1.69.11,34.33,34.33,0,0,0,5.21-4.8c3.46-4.38,5.34-9.58,7.17-14.77A32.11,32.11,0,0,1,148,31.81c.12-.26.54-.39.83-.58.17.29.53.61.49.86a13.48,13.48,0,0,1-.62,2.44c-1.31,3.72-3.29,7.24-3.49,11.28-.07,1.44,0,2.88,0,4.32Z" transform="translate(-27.81 -3)"/><path class="cls-1" d="M99.13,138.09c-.59,5.17-4.39,7.79-8.39,10.26C92.71,144.28,96,141.24,99.13,138.09Z" transform="translate(-27.81 -3)"/><path class="cls-1" d="M147.58,121.66c1.48-.79,2.68-.07,3.86.75l-.08.44-3.89-.6Z" transform="translate(-27.81 -3)"/><path class="cls-1" d="M207.09,81.21c-2.11-.75-3.92-1.17-4.1-3.38s1.54-5.1,3.42-5.83c1.62-.63,3,.48,2.6,2.37C208.55,76.62,207.78,78.8,207.09,81.21Z" transform="translate(-27.81 -3)"/><path class="cls-1" d="M166.22,80.22c-2.28-.11-3.38-.78-3.89-2.27-.42-1.22.14-3.43,1.12-4a2.22,2.22,0,0,1,1.5-.37,6.48,6.48,0,0,1,4.66,3.31,1.63,1.63,0,0,1-.3,1.55A30.19,30.19,0,0,1,166.22,80.22Z" transform="translate(-27.81 -3)"/><path class="cls-1" d="M88.54,102.31c-4.58,9.06-10.67,16.84-19.42,22.36l-.56-.25a24,24,0,0,1,.86-3.53,27.92,27.92,0,0,1,7.71-10.59c3.47-3,7.22-5.73,10.85-8.57Z" transform="translate(-27.81 -3)"/><path class="cls-2" d="M148.62,28.07a1.19,1.19,0,0,0,0-2.38,1.19,1.19,0,0,0,0,2.38Z" transform="translate(-27.81 -3)"/><path class="cls-2" d="M96.47,30.93a1.19,1.19,0,0,0,0-2.38,1.19,1.19,0,0,0,0,2.38Z" transform="translate(-27.81 -3)"/><path class="cls-2" d="M183.06,65.57a1.47,1.47,0,0,0-1.67.71,1.29,1.29,0,0,0-.12.92,1.22,1.22,0,0,0,.55.71,1.23,1.23,0,0,0,1.65-.43q.28-.59-1.05.39A1.23,1.23,0,0,0,183.9,67a1.21,1.21,0,0,0-.84-1.46Z" transform="translate(-27.81 -3)"/><path class="cls-2" d="M137.18,117.8a1.55,1.55,0,0,0-1.27.17,1.59,1.59,0,0,0-.74,1.28,1.2,1.2,0,0,0,1.21,1.19,1.23,1.23,0,0,0,1.21-1.19.89.89,0,0,1-.53.79.44.44,0,0,1-.33,0q-.38,0-.19,0a1.19,1.19,0,1,0,.64-2.3Z" transform="translate(-27.81 -3)"/><path class="cls-3" d="M141.07,244.93c-.83-6.61-1.94-13.22-1.54-19.9a12.73,12.73,0,0,1,12-11.76c2.79-.2,5.74-1.61,8.52.46-1.28,1.5-4-.67-4.75,2.07,3.14-.65,4.68,1.77,6.66,3.24.87.64,1.31,1.52,2.79,1.16s2.25.87,1.21,2.09-.62,2.28-.23,3.59c1.22,4.14,1.85,8.36.78,12.65-1.14,4.57-5,6.66-9.47,5.22a21.07,21.07,0,0,0-5.49-1.34c-1.45-.06-2,.28-1.88,1.9.33,4.28.47,8.57.67,12.85a21,21,0,0,1-1.05,7.27c-1.34,4.32-4.42,5.9-8.47,4a2.14,2.14,0,0,0-2.87.43,44.51,44.51,0,0,1-17.75,8.76c-4,1-6.43-1-6.53-5.21,0-1.34,0-2.67-.07-4-.13-1.93,1.34-2.74,2.59-3.71,1.86-4.71,4-10,1.14-13-.34,1.55.41,3.27-.8,4.65-1.57-.14-1.94-1.51-2.29-2.59a33.65,33.65,0,0,1-1.67-8.27c.71-2.25,1.58-4.47,2.09-6.77s-.07-4.58.85-6.89c-1.39.22-1.77,1.39-2.93,2,.82-2.57,4-3.63,3.24-7.08,1,.87.41,2.79,2.15,1.49,2.46-1.82,3-1.43,3.14,1.73a19.57,19.57,0,0,0,1.22,4.72c.65,2.22-.35,4.87-.21,7.31.33,5.79-.58,11.54-.41,17.31,0,1.17.59,1.83,1.86,1.21,2.54-1.25,5.13-2.43,7.61-3.8,1.93-1.07,2.6-2.71,1.45-4.81-.9-1.64-.94-3.9-3.36-4.42-.86-.18-.73-1-.69-1.68a3.82,3.82,0,0,0-.84-2.69c-1.1,1.08-.93,2.65-1.53,3.91-.4.82-.7,2-2,1.55-1.09-.43-.94-1.51-.64-2.48a12.37,12.37,0,0,1,.38-1.36,13.33,13.33,0,0,0,.38-10.94,3.68,3.68,0,0,1,.95-4.21c2.07-1.93,3.7-4.7,7.64-4.53-2,1-1.55,2.53-1.54,4,0,3.61,0,7.22,0,10.83,2.29-.07,3-.82,2.54-3.35a47.49,47.49,0,0,1-.75-10.84c.05-.77-.57-1.94.79-2,1,0,1.23,1.05,1.39,1.89.82,4.32.79,8.73,1.18,13.09.72,8.21,1,16.47,2.68,24.6a128.24,128.24,0,0,1,1.82-17.54,2.23,2.23,0,0,1,.79,2.31c-.36,3.15.49,6.25.42,9.35-.06,2.5.68,3.29,3,2.82,1.21,3.32-1.34,4.51-3.54,5.91,2.66,1.38,4.56.56,5.39-2.26a23.38,23.38,0,0,0,.58-9.36c-.19-1.67-.51-3.3,0-4.65.07.33-.11.76-.84.82-2.52-1.53-2.22-4.1-2.28-6.47,0-.93.26-1.84-.45-2.63-1-5.42.54-10.69.59-15.48-1.78,2.62-2.12,4.38-1.43,9.4.26,1.88.64,3.75,0,5.62C142.26,242.19,142.16,243.85,141.07,244.93Z" transform="translate(-27.81 -3)"/><path class="cls-4" d="M96.28,270.09c-.05,5.24.55,10.49-.34,15.72-.21,1.23.48,2.44-2.06,1.36-1.71-.73-4.41,1.51-5.66,3.8-.91,1.65-1.73,3.35-2.58,5-.36.71-.76,1.49-1.68,1s-.29-1.18,0-1.75c.6-1.3,2.06-2.39-.33-3.77-1-.56-1-2.77-.83-4.31.39-3.59.84-7.18,1.27-10.77.08-.67,1-1.51-.79-1.49-1.48,0-.82-1.33-.56-2.18.88-2.9,1.77-5.8,2.64-8.7.26-.88.75-1.76-.78-2.17-1.1-.29-.78-1.43-.54-2.21.77-2.52,1.63-5,2.46-7.53.45-1.35,1.09-2.66.56-4.45-.72,1.61-1.31,3-2,4.41-.4.8-.78,2.06-2,1.45-1-.48-.38-1.52-.16-2.33a4.85,4.85,0,0,0,.27-1.76c-3.47,2.27-7.3,3.82-9.83,7.45a8.52,8.52,0,0,1-5.62,3.2c-1.48.22-1.51-1.47-1.48-2.57.11-3.3.33-6.59.51-9.88a.76.76,0,0,1,1.12-.05c.61-3.36,3.84-4.94,5.27-7.74a10,10,0,0,0,.46-1.3c.48-2,2.64-2,3.73-3.24a6.09,6.09,0,0,1,1.42-.68,5.19,5.19,0,0,0,4.86-2.38c1.06-.66,2.19-.06,3.29-.2a19.26,19.26,0,0,0,2.73-.82c1.84-.34,3.52.77,3.28,2.54-.41,3,.23,6.13-1,9-.41,1.09-.8,2.18-1.22,3.26a44.11,44.11,0,0,1-2.56,6.88c-1.84,3.64-1.07,6.94,2,9.73a6.4,6.4,0,0,1,2.31,3.78,44.8,44.8,0,0,1-1.16,7.6c1.59-1.83.61-3.92,1.41-5.56,1.44-1.09,2.25.23,3.23.86A1.9,1.9,0,0,1,96.28,270.09Z" transform="translate(-27.81 -3)"/><path class="cls-5" d="M171.85,160.82c-16.6,8-34.49,11.68-52.44,14.89a77.79,77.79,0,0,1-35.57-1.52,15.39,15.39,0,0,1-5.14-2.3c-.12-.49,0-.78.55-.52,10.33,3.72,20.94,4.14,31.69,2.59,4-.58,8-1.37,11.95-2.31a345.74,345.74,0,0,1-45.32-5.21c4.37-.77,8.43,0,12.41.48a211,211,0,0,0,28.55,1.2c15.4-.15,30.12-4.05,44.75-8.42,2.37-.71,4.74-1.38,7.08-2.17.71-.24,1.41-.92,2.07-.26s.35,1.39,0,2.1a13.27,13.27,0,0,0-.59,1.5Z" transform="translate(-27.81 -3)"/><path class="cls-6" d="M141.07,244.93c.39-1.31-.61-3.33,1.82-3.62.68-.38,1,.25,1.53.49s1.87-.51,1.18,1.28c-1,2.6,0,5.09,1.31,7.4a12.54,12.54,0,0,1-1.8,9.73c-.65.39-1.31.76-1.95,1.16-1.18.74-2,.37-1.73-1,.46-2.65-.18-5.11-.55-7.7-.32-2.2.42-4.65.19-7Q141.07,245.32,141.07,244.93Z" transform="translate(-27.81 -3)"/><path class="cls-7" d="M94.74,240.66l-1.63.79c-1.32-2-.44-4.23-.6-6.34,0-.64.25-1.29.21-2-.19-2.64-.66-3.07-3.19-2.11-1,.38-2.73-.13-3,1.71l-2.72-.05a11.35,11.35,0,0,1-5.14,2.25,1.28,1.28,0,0,1-1.27.69,16.12,16.12,0,0,1-4.51,2.26,2.38,2.38,0,0,0-.51,0c-.6.33-.64,0-.57-.48A71.8,71.8,0,0,1,89,228.48c3.94-1.43,5.13-.49,5.24,3.62C94.27,235,94.55,237.8,94.74,240.66Z" transform="translate(-27.81 -3)"/><path class="cls-8" d="M171.8,160.86v.08l0-.11Z" transform="translate(-27.81 -3)"/><path class="cls-8" d="M222.65,371.4c-.4-1.4-1.95-.72-3-.59-7.76,1-15.51,2.1-23.29,2.88-14.82,1.47-83.46,10.75-135.58-1.56-4.22-1-5.26-4.48-4.63-8.77.15-1,.24-2,.37-3.1a69.14,69.14,0,0,0,15.33,3.25,131.27,131.27,0,0,0,16,1c25.11-.27,50.21-1.1,75.29-2.36,15.35-.77,30.64-2,45.88-3.86,1.64-.2,2.11.2,2.2,1.88.14,2.63-.67,8.37,2.47,7.87,2.3-.36,0-3.8-.16-5.39-.41-4.32-.41-4.31,3.81-4.43.45,0,1.58.38,1.39-.49-.24-1.09-1.64-.51-2.37-.31-2.4.65-3-.18-3.07-2.61-.28-7.33-.61-14.66-2.08-21.89-1.4-6.89-3.06-13.76-3.93-20.73a220.11,220.11,0,0,0-14.85-57.3c-5.09-12.26-10-24.59-14.52-37.08,2.07-1,.34-2.06.09-3.1a27.78,27.78,0,0,1-.7-4.39c.13-16.53.19-33.05-1.4-49.59l-.8,42.66a7.17,7.17,0,0,1-.13,1.59,7.33,7.33,0,0,0-.41-1c-2.81-8-1.86-16.78-1.87-25.25,0-5.94-.54-11.87-.83-17.8a5.29,5.29,0,0,0-.25,1c-1,10.65-.68,21.33-.43,32,.13,5.55.48,11.18,2.78,16.42,1.68,1.79,1.45,4.42,2.78,6.36a9.86,9.86,0,0,0,.23,1.67c3.79,12.08,8,24,12.17,36,4.3,12.29,9,24.47,11.05,37.43a405.47,405.47,0,0,0,8.31,41.12c2.12,8,2.33,16.33,2.16,24.76-3-.84-5.83-.35-8.67-.59a279.72,279.72,0,0,0-41.48-.15c-11.62.72-23.22,1.74-34.83,2.56q-19.71,1.38-39.42,2.63c-9.16.58-29.58-2.35-29.26-3.85,1.28-5.95,1.49-12,2.45-18a131.39,131.39,0,0,0,.69-34.4c-1.31-13-3-26-2.63-39.09.25-9.8-.05-19.58-2.19-29.23-.29-1.31-.68-3,1-4.16,5.47-3.94,8.41-9.68,11-15.67,6.1-13.91,7.78-50.67,5.82-48.92-2.45,2.19-15.33,67.79-17.29,62.55-1.08-2.88,2.36-23.14,4.15-29.39,2.34-8.15,11.38-26.65,10.49-26.95-1.4-.18-11.84,21.13-14.19,33.22-2,10.18-1.4,20.63-3.26,30.83-.08.44.46,1.19.74.78.9-1.33.79-.67.9.29a129.21,129.21,0,0,1,.72,20.82c-.27,5.34-.58,10.68-.7,16-.31,13,1.65,25.89,2.64,38.83.95,12.38-.57,27.14-6,33.4a12.2,12.2,0,0,0-2.92,9.53c.12,2,2.08,5.39,3.42,3.48.48-1.43,4.16-20.11,5.95-20.47,1.9-.57-2.61,14.49-3.37,21.26-.51,4.6.87,8.37,5,10.58a46.8,46.8,0,0,0,9,3.64c11.69,3.5,23.76,4.68,35.85,4.92,30.83.61,61.68,1.39,92.38-2.68,8.12-1.08,16.18-2.61,23.8-5.77C221.27,373.23,223.11,373,222.65,371.4Z" transform="translate(-27.81 -3)"/><path class="cls-9" d="M67.86,247.58l-1.12.05a7.86,7.86,0,0,1,1.81-6.51A15.9,15.9,0,0,0,67.86,247.58Z" transform="translate(-27.81 -3)"/><path class="cls-10" d="M72.93,237.86a9.37,9.37,0,0,1,4.51-2.26c-.65,1.81-2.78,1.68-3.86,2.94Z" transform="translate(-27.81 -3)"/><path class="cls-11" d="M79.25,171.37l-.55.52a4.52,4.52,0,0,1-2.7-3.79A18.5,18.5,0,0,0,79.25,171.37Z" transform="translate(-27.81 -3)"/><path class="cls-12" d="M71.85,237.42l.57.48a4.55,4.55,0,0,1-4.48.94Z" transform="translate(-27.81 -3)"/><path class="cls-13" d="M151.76,240.67c3.3-3.44,8.49-3.87,11.89-7.94-2.26.15-3.45,1.27-4.82,2a1.67,1.67,0,0,1-1.89.07c-.72-.65.13-1.23.46-1.67,1.87-2.49,3.82-4.92,6.06-7.78,2,5.19,2.51,9.9,1.06,14.68-.56,1.86-2.38,1.22-3.8,1.61C157.38,242.58,154.79,241,151.76,240.67Z" transform="translate(-27.81 -3)"/><path class="cls-14" d="M162.2,223.2c.69,1.22-.34,1.62-.84,2.22-1.81,2.2-3.64,4.39-5.45,6.59-.62.75-1.31,1.65-1,2.57.83,2.12-.61,2.51-2.08,3.06-.72-.75.73-2.5-1-2.66-1.15-.11-1.68,1-2.26,1.92a18.71,18.71,0,0,0-2.42,4.3c-1.15,0-.89-.77-.84-1.23.42-4.17-.36-8.61,2.57-12.26a6.39,6.39,0,0,1,3.22-2.64,54.12,54.12,0,0,1-2.83,7.06" transform="translate(-27.81 -3)"/><path class="cls-15" d="M121.07,268.35c.15-.54.51-1.12.42-1.61-.86-4.53,2.22-5.56,5.56-6.6a55,55,0,0,0,6.07-2.7c.16,3,1.8,6-.65,9-.83-2.92-4.85-3.91-7.14-1.92a53.93,53.93,0,0,0-3.87,4.08Z" transform="translate(-27.81 -3)"/><path class="cls-16" d="M144.41,241.8c-.9,1-1-.28-1.53-.49-.19-3.12-.17-6.27-.63-9.35-.51-3.43.77-5.87,3.47-8Z" transform="translate(-27.81 -3)"/><path class="cls-17" d="M127.11,265.62l-2.52,4.49,3.39,1.36a16.87,16.87,0,0,1-9.18,3.94,1.69,1.69,0,0,1-2-1.16c-.25-1.21,1.1-.21,1.36-.83.79-1.87,3.23-1.46,4.25-3.21A11.13,11.13,0,0,1,127.11,265.62Z" transform="translate(-27.81 -3)"/><path class="cls-18" d="M156.26,217.25c-.66,2.83-1.41,5.31-4.51,6.27-2,.62-3.15,2.63-4.54,4.75a12.25,12.25,0,0,1-.18-5.76c.21-1,.72-3.06,2.94-1.85,1.15.63,1.84-.69,2.71-1.16C153.92,218.84,155.07,218,156.26,217.25Z" transform="translate(-27.81 -3)"/><path class="cls-19" d="M116.42,264.57a13.23,13.23,0,0,0,0-8.4c0-2.13,0-4.26,0-6.81,3.5,3.29,3.67,6.72,2.31,10.5-.64,1.77-1.12,3.59-1.68,5.38-.06.2-.17.6-.44.15A2.72,2.72,0,0,1,116.42,264.57Z" transform="translate(-27.81 -3)"/><path class="cls-20" d="M119.89,228.63c.11,4.28.5,8.35-1.65,12.91,0-1.91.09-3.12,0-4.32s.48-2.55-1.3-3.62C115.29,232.63,116.75,230,119.89,228.63Z" transform="translate(-27.81 -3)"/><path class="cls-21" d="M154.65,225.3c1-2,1.69-3.41,2.35-4.78,1.23-2.53,1.93-2.56,3.58-.22.52.73.76,1.2-.25,1.73C158.62,222.93,157,223.95,154.65,225.3Z" transform="translate(-27.81 -3)"/><path class="cls-22" d="M135.6,251c.52,3.32,1.07,6.64,1.54,10,.1.73,0,.75-2.28,2C134.66,258.88,135.74,255,135.6,251Z" transform="translate(-27.81 -3)"/><path class="cls-23" d="M133.56,249.41c-3.09-4.18-3.09-4.27-.74-7.86C133.9,243.33,134,244,133.56,249.41Z" transform="translate(-27.81 -3)"/><path class="cls-24" d="M133.67,268.38c.67-1.2,1.29-2.43,2-3.57.33-.5.74-1.25,1.51-1.08s.66,1,.94,1.59c.39.75-.23,1.18-.82,1.53L134,268.79Z" transform="translate(-27.81 -3)"/><path class="cls-25" d="M130.47,265c2.35,4.28-1.61,3.68-3.59,5C127.14,267.51,129,266.5,130.47,265Z" transform="translate(-27.81 -3)"/><path class="cls-26" d="M145.8,217.76a13.46,13.46,0,0,1-3.6,7.22C142.81,222,143.54,219.76,145.8,217.76Z" transform="translate(-27.81 -3)"/><path class="cls-27" d="M126.63,235.3c-1.15-2.45-1.68-4.52,1.39-6Z" transform="translate(-27.81 -3)"/><path class="cls-28" d="M152.2,215c-1.22,1-2.07,1.74-2.9,2.48-.64.57-1.14.5-1.57-.21s.06-1,.59-1.25A8.39,8.39,0,0,1,152.2,215Z" transform="translate(-27.81 -3)"/><path class="cls-29" d="M129.07,240.78c-1.11-2.09-.68-4.07.52-6Z" transform="translate(-27.81 -3)"/><path class="cls-30" d="M116.79,244.94a4.56,4.56,0,0,1-.28-4.48Z" transform="translate(-27.81 -3)"/><path class="cls-31" d="M116.41,256.16a7.57,7.57,0,0,1-2-4.27,15.32,15.32,0,0,0-1.88-6.44c-1.26-.7-1.68-2-2.22-3.17-2.31-5.13-7.59-6.52-12-3.08a8.19,8.19,0,0,1-3.6,1.46c-.68-.32-1.25,0-1.82.33-.84.44-1.06,1.4-1.69,2l-1.08,2.92h0c-1.06,2.59-2,5.22-3.11,7.79-1.55,3.52-.56,6.9,2.44,9.43A6.55,6.55,0,0,1,92,266.75c.41.53.18,1.58,1.29,1.52l2.63,1.5a1,1,0,0,0,.4.32,32.88,32.88,0,0,0,17.32-1.7l2.83-3.82C117.75,261.76,118.85,259,116.41,256.16ZM96,267a.31.31,0,0,0,0-.42c1.09.44,2.49-.2,3.55.76C98.36,267.32,97.17,266.38,96,267Z" transform="translate(-27.81 -3)"/><path class="cls-32" d="M84.77,290.39q.65-4.88,1.3-9.75c.18-1.34,1.35-1.87,2.31-2.29s2.43-.1,2.26,1.16a22,22,0,0,1-4.88,11.19Z" transform="translate(-27.81 -3)"/><path class="cls-33" d="M86.58,232.72c.71-.6-2.48-.45-.26-1.35.17-.07.32-.21.5-.28,6.35-2.67,6.39-2.63,6.26,4.07,0,2.09,0,4.19,0,6.29-.57.59-.89,1.47-1.88,1.55,1.08-2.9.31-6,1-8.95a2,2,0,0,0-1-2.19c-.7-.47-1.4-.2-2.15.13S87.84,234,86.58,232.72Z" transform="translate(-27.81 -3)"/><path class="cls-34" d="M88.27,236.57c-.32,4.36-2.84,8.9-6.11,10.83A33.06,33.06,0,0,1,88.27,236.57Z" transform="translate(-27.81 -3)"/><path class="cls-35" d="M92,266.75l1.29,1.52c-.27,2.63.8,5.71-2.9,7.47A59.63,59.63,0,0,1,92,266.75Z" transform="translate(-27.81 -3)"/><path class="cls-17" d="M67.85,258.94c.05-2.44-.51-4.27.49-6.11.78.42.75,2.14,2.25,1.06.93-.67.61.53.63.86C71.33,256.83,69.62,257.47,67.85,258.94Z" transform="translate(-27.81 -3)"/><path class="cls-36" d="M78.72,234.92a14.21,14.21,0,0,1,5.14-2.25C82.75,234.79,81.31,236.18,78.72,234.92Z" transform="translate(-27.81 -3)"/><path class="cls-37" d="M76.91,251.33a18.22,18.22,0,0,1-2.85,1.91c-.61.26-.62-.58-.5-.93.39-1.17,1.81-1,2.52-1.75Z" transform="translate(-27.81 -3)"/><path class="cls-38" d="M82.14,239.28a6.45,6.45,0,0,1,2.74-3.66C84.41,236.93,84.25,238.4,82.14,239.28Z" transform="translate(-27.81 -3)"/><path class="cls-39" d="M95.91,267.09l0-.72c2-.43,4.06-.84,5.74,1.44C99.4,268.79,97.69,267.58,95.91,267.09Z" transform="translate(-27.81 -3)"/><path class="cls-40" d="M109,267.6a22.88,22.88,0,0,0,4.31-4.66C113.75,265.86,112.68,267,109,267.6Z" transform="translate(-27.81 -3)"/><path class="cls-41" d="M103.53,257.87a11.16,11.16,0,0,0,3.29-5.47C104.07,253.69,103.86,255.67,103.53,257.87Z" transform="translate(-27.81 -3)"/><path class="cls-42" d="M99.82,243.09c-.63,1.37-1.13,2.53-2.56,3C97.68,244.9,97.33,243.15,99.82,243.09Z" transform="translate(-27.81 -3)"/><path class="cls-43" d="M93,251c1.71.93,0,2.62-.07,3.93C92.44,253.61,92.46,250.56,93,251Z" transform="translate(-27.81 -3)"/><path class="cls-44" d="M101.36,240.22c2.13-.15,3.36-.4,4.23.86C104.19,241.73,103.15,240.87,101.36,240.22Z" transform="translate(-27.81 -3)"/><path class="cls-45" d="M91.16,260.5c-1.84.39-1.8-2.76-1.5-5.06C90.52,257.35,93.11,258.94,91.16,260.5Z" transform="translate(-27.81 -3)"/></svg>