<svg xmlns="http://www.w3.org/2000/svg" viewBox="0 0 428.08 310.51"><defs><style>.cls-1{fill:#fff;}.cls-2{fill:#1a171b;}.cls-3{fill:#31ab4d;}.cls-4{fill:#2ca948;}.cls-5{fill:#010101;}.cls-6{fill:#28a745;}.cls-7{fill:#39ae53;}.cls-8{fill:#151515;}.cls-9{fill:#4bb662;}.cls-10{fill:#d5eddc;}.cls-11{fill:#2c2c2c;}.cls-12{fill:#5ebe73;}.cls-13{fill:#fdfefd;}.cls-14{fill:#fcfdfc;}.cls-15{fill:#fdfdfd;}.cls-16{fill:#f7fbf8;}.cls-17{fill:#f9fcfa;}.cls-18{fill:#fbfdfb;}.cls-19{fill:#fbfbfa;}.cls-20{fill:#fbfcfb;}.cls-21{fill:#f8fcf9;}.cls-22{fill:#fafcfb;}.cls-23{fill:#f6fbf7;}.cls-24{fill:#f7fbf9;}.cls-25{fill:#f5faf7;}.cls-26{fill:#e4f3e8;}.cls-27{fill:#f0f8f2;}.cls-28{fill:#eaf6ee;}.cls-29{fill:#dff1e4;}.cls-30{fill:#c8e8d0;}.cls-31{fill:#df0b35;}.cls-32{fill:#fafdfb;}.cls-33{fill:#f6faf7;}.cls-34{fill:#f4faf6;}.cls-35{fill:#f8faf8;}.cls-36{fill:#eff8f2;}.cls-37{fill:#f1f8f3;}.cls-38{fill:#dcf0e1;}.cls-39{fill:#f9c9d3;}.cls-40{fill:#fdebef;}.cls-41{fill:#fce3e9;}.cls-42{fill:#fbd9e0;}.cls-43{fill:#fac5d0;}.cls-44{fill:#fbe0e6;}.cls-45{fill:#459447;}</style></defs><title>tshirt</title><g id="phrase"><path d="M356.78,196.78c-2,1.42-3.82,2.88-5.81,4.1a12.39,12.39,0,0,1-3.85,1.49c-2.31.49-3.73-1.19-2.71-3.28,1.11-2.28,2.53-4.4,3.82-6.6a29.61,29.61,0,0,0,1.52-2.61c.48-1,0-1.63-1.17-1.52-.8.08-1.6.16-2.39.26s-1.57.26-2.22.36c0,7.67-3.55,13.39-9.64,17.68a11.08,11.08,0,0,1-4,1.51c-2.68.58-4.82-1.37-4.94-4.45-.09-2.26,0-4.53,0-6.8-.34.66-.72,1.42-1.12,2.17a9.28,9.28,0,0,1-5.66,4.86c-2.81.84-4.6-.4-4.49-3.27.08-2.05.36-4.1.52-6.15.06-.8,0-1.6,0-2.41l-.51-.24c-1.2.84-2.45,1.62-3.59,2.53a26.86,26.86,0,0,0-8.12,11.61,12.81,12.81,0,0,1-1.44,2.23,8.51,8.51,0,0,1-.4-2.73,95,95,0,0,1,6.62-20.15c.93-2.12,2-4.19,2.8-6.45a4,4,0,0,0-.35.31c-6.26,7-12.5,14-18.8,20.89a2.91,2.91,0,0,0-.91,2.8c.44,2.28-.54,4.27-1.82,6.08a20.06,20.06,0,0,1-7.34,6.53,7.13,7.13,0,0,1-2.68.16c0-.85-.38-1.86,0-2.52a38.48,38.48,0,0,1,3.44-5.32c1.84-2.4,3.85-4.68,6-7.23a28.93,28.93,0,0,0-2.35-2.27c-2.19-1.7-4.56-3.19-6.64-5-3.75-3.3-3.16-7.24,1.31-9.6a10.61,10.61,0,0,1,8.38-.78c2.35.73,3.27,2,3.25,4.42,0,.9,0,1.79,0,2.69l-.56,0c0-1-.05-2.06,0-3.08a2.8,2.8,0,0,0-1.81-2.88,9.35,9.35,0,0,0-10.47,2c-1.72,1.93-1.76,3.66.09,5.44a34.36,34.36,0,0,0,3.76,3c2.06,1.5,4.16,2.94,6.43,4.54,2.62-3,5.44-6.05,8.15-9.24,4.45-5.23,8.82-10.52,13.26-15.76.72-.85,1.54-2.23,2.85-1.43s.17,2-.23,2.93c-3.27,7.47-6.42,15-8.46,22.88,0,.19-.08.39-.21,1.05a25.48,25.48,0,0,1,2.31-3,53.06,53.06,0,0,1,5.75-5c2-1.4,3.28-.63,3.27,1.77s-.24,5-.31,7.45c-.06,2.14,1,3,3,2.14A8.06,8.06,0,0,0,322,200a62.7,62.7,0,0,0,3.32-7.83c.3-.74.54-1.5.81-2.26l.65.1c0,.94,0,1.88,0,2.82-.08,3.65-.27,7.29-.21,10.94,0,2.67,1.77,3.76,4.34,3a7.14,7.14,0,0,0,1.94-.74,20.23,20.23,0,0,0,9.25-14.9c.18-1.37-.15-2.21-1.87-2.14a10.31,10.31,0,0,1-3.47-.55c-.55-.18-1.36-.93-1.3-1.32a2.37,2.37,0,0,1,1.29-1.59c1.92-.75,3.66.1,5,1.28a3.68,3.68,0,0,0,3.51.75,30.76,30.76,0,0,1,3.17-.48c2.09-.18,3.17,1.31,2.21,3.14-1.14,2.15-2.44,4.22-3.64,6.34a29,29,0,0,0-1.47,3c-.16.39-.26,1.13-.06,1.27a2.14,2.14,0,0,0,1.58.41A7.84,7.84,0,0,0,350,200a65.77,65.77,0,0,0,7.05-6.41c1-1.14,1.27-3,1.82-4.51,1.21-3.43,2.38-6.88,3.69-10.68l-8.49,2.08a7.44,7.44,0,0,1,1.41-.77c2-.65,4-1.29,6.1-1.82a2.24,2.24,0,0,0,1.72-1.61c.9-2.48,1.88-4.93,2.89-7.37.17-.4.67-.67,1-1,.2.44.6.89.57,1.31-.16,2.3-.43,4.6-.69,7.13,1.49-.39,2.94-.84,4.42-1.15,5.7-1.2,11.4-2.41,17.13-3.49.8-.15,2.43.3,2.47.61.17,1.45-1.31,1.09-2.1,1.24q-10.18,1.88-20.39,3.56a2.65,2.65,0,0,0-2.53,2.24,43.3,43.3,0,0,1-5.92,13.12,11.26,11.26,0,0,0-1.34,4.16,1.86,1.86,0,0,0,1.82,2.21c2.32.18,4.82.64,7,0,6.64-1.85,13.14-4.13,19.7-6.25,1.47-.48,2.92-1.06,4.43-1.4.58-.13,1.29.28,1.94.44-.38.6-.62,1.51-1.16,1.73a85.82,85.82,0,0,1-8.4,3.15c-5.06,1.53-10.16,3-15.3,4.23a15.71,15.71,0,0,1-8.75-.16A4.22,4.22,0,0,1,356.78,196.78Zm-68.7,6.64c-3.16,3.15-6.42,6.2-8.39,10.26C283.69,211.21,287.49,208.59,288.08,203.42ZM336.54,187l-.1.6,3.89.6.08-.44C339.22,186.92,338,186.2,336.54,187Z" transform="translate(-3.07 -2.21)"/><path d="M348.56,138.71A26.16,26.16,0,0,0,342,152.62c-.18,1.25-.38,2.5-.67,3.73a4,4,0,0,1-.72,1.13c-.38-.31-1-.57-1.11-.94a47.58,47.58,0,0,1-1.14-6.51c-.19-2.57,0-5.16-.4-7.79-.46,1.25-.83,2.55-1.41,3.75-1.14,2.38-2.33,4.74-3.62,7-.31.55-1.1.84-1.67,1.25l-1.18-1.74-.86,1c-2.06,2.25-4.4,4-7.59,4.37-3.66.38-5.37-1.81-4.07-5.18,1.76-4.55,5.37-7.42,9.34-9.94a36.13,36.13,0,0,1,4.76-2.58,12.17,12.17,0,0,1,3-.46,28.26,28.26,0,0,0-4,1.54c-3.38,2-6.7,4.06-9.06,7.22a24.44,24.44,0,0,0-2.88,5.25c-.73,1.75.48,3.16,2.37,2.7a13.3,13.3,0,0,0,4.74-2.11,11.92,11.92,0,0,0,4.94-9.23,19.16,19.16,0,0,1,.69-3.12l.57,0c.2.46.6.93.57,1.38-.14,1.72-.39,3.43-.66,5.14a32.57,32.57,0,0,0-.59,4.69,16.18,16.18,0,0,0,4-7c.88-2.56,1.69-5.14,2.54-7.7l.7,0a13.59,13.59,0,0,1,.45,2.09c.25,4.06.41,8.13.68,12.19a15,15,0,0,0,.57,2.57c1-3.63,1.76-7.51,3.16-11.15.84-2.2,2.61-4.08,4.07-6a6.18,6.18,0,0,1,1.82-1.14c-.5,3.68-1,7.09-1.43,10.5a6.56,6.56,0,0,0-.09,1.27c.1,1.6.22,3.23,1.86,4.13a4.65,4.65,0,0,0,4.88-.31,8.57,8.57,0,0,0,4.32-6.87l-2.34,2.63-.3-.23L358,146a25.23,25.23,0,0,1-3.78.7,4.12,4.12,0,0,1-4.13-2.92,5.05,5.05,0,0,1,1.36-5.4c1.33-1.4,3.12-1.17,4.61-.3a48.64,48.64,0,0,1,4.53,3.37c1.06-.93,2.38-2.23,3.86-3.33a8.08,8.08,0,0,1,2.42-.79,7.86,7.86,0,0,1,.45,2.69c-.55,2.79-1.35,5.53-2,8.3a14.29,14.29,0,0,0-.18,2.16l.37.29a19.65,19.65,0,0,0,2.51-2,17.68,17.68,0,0,0,4-8,16.59,16.59,0,0,1,.75-2l.53.06c.09.56.21,1.11.25,1.68.22,2.84.35,5.69.68,8.52.09.74.67,1.84,1.23,2s1.57-.53,2.11-1.09a23.86,23.86,0,0,0,5.06-9.28c1.07-3.19,1.83-6.48,2.77-9.86l-9.5.45,0-.2c1.1-.16,2.2-.35,3.3-.48,2-.24,4-.39,6-.72a1.86,1.86,0,0,0,1.17-1.07c.66-1.83,1.19-3.72,1.78-5.58a23.67,23.67,0,0,1,1-2.84c.15-.32.69-.47,1.06-.7.19.38.61.8.55,1.13-.44,2.12-1,4.22-1.5,6.32-.16.66-.39,1.3-.67,2.22,2.94-.52,5.65-1,8.37-1.48,5.59-.92,11.19-1.84,16.8-2.68a6.78,6.78,0,0,1,2.2.44,6.67,6.67,0,0,1-2,1.16q-7.76,1.3-15.56,2.4c-3,.42-6,.66-8.93,1.07-.53.07-1.33.46-1.46.87a111.23,111.23,0,0,0-3.58,11.63,21.46,21.46,0,0,0,.05,7.24c.32,2.37,2,3.19,4.27,2.36a14.6,14.6,0,0,0,6-4.51c-.35-.22-.56-.38-.8-.5-2.73-1.38-3.55-2.52-3.28-4.84.34-2.93,1.68-5.29,4.53-6.43a3.08,3.08,0,0,1,4.43,2.71,29.6,29.6,0,0,1-1.17,6.29,14.32,14.32,0,0,1-.88,2.09c3,.06,5.81.33,8.55.13,5.88-.43,11.74-1.13,17.61-1.64a51,51,0,0,1,7.41-.09,17.35,17.35,0,0,1-8.46,2.65c-4.33.36-8.66.81-13,.86-4.06,0-8.12-.39-12.19-.55a2.06,2.06,0,0,0-1.41.56c-2.12,2.22-4.39,4.22-7.47,5a4.61,4.61,0,0,1-6-3.32,43.94,43.94,0,0,1-.79-4.66c-.64.95-1.18,1.89-1.86,2.72a16.57,16.57,0,0,1-2.55,2.62c-1.72,1.32-3.39.81-4-1.27a32.24,32.24,0,0,1-.62-4.7c-.07-.57-.09-1.14-.16-2a40.38,40.38,0,0,1-2.48,4.1,17.81,17.81,0,0,1-3.25,3.24,1.74,1.74,0,0,1-2.89-1.91c.46-2.21,1.19-4.37,1.76-6.56.35-1.33.6-2.69.9-4l-.52-.24c-1.73,1.69-3.48,3.37-5.16,5.1-.23.24-.21.78-.2,1.18a10.7,10.7,0,0,1-7.3,10c-3.64,1.07-6.66-1.09-6.62-4.84a39.25,39.25,0,0,1,.45-5.36C347.63,142.48,348.1,140.81,348.56,138.71ZM396,146.54c.69-2.41,1.47-4.59,1.92-6.83.38-1.89-1-3-2.6-2.37-1.89.73-3.6,3.61-3.42,5.83S393.93,145.79,396,146.54Zm-40.86-1a30.19,30.19,0,0,0,3.09-1.82,1.63,1.63,0,0,0,.3-1.55,6.48,6.48,0,0,0-4.66-3.31,2.22,2.22,0,0,0-1.5.37c-1,.61-1.54,2.82-1.12,4C351.8,144.77,352.9,145.44,355.18,145.55Z" transform="translate(-3.07 -2.21)"/><path d="M233.95,170.14a4.64,4.64,0,0,1,.1-1.42c3.21-7.83,6.57-15.59,11.8-22.38a15.7,15.7,0,0,1,2.71-2.7c1.58-1.25,2.81-.74,3.24,1.21.13.6.23,1.2.36,1.9,1.18-1.22,2.18-2.4,3.32-3.41,1.5-1.32,2.84-.86,3.23,1.1a5.65,5.65,0,0,1,0,2.66c-.95,3-.27,6,.22,9,.38,2.25,2.11,2.93,4,1.58,3.12-2.25,5-5.52,6.68-8.81,1-2,1.72-4.09,2.63-6.11.2-.44.69-.76,1.05-1.13.12.53.48,1.14.32,1.58-1.64,4.73-1.61,9.67-2,14.55-.11,1.27,0,2.56,0,3.84l.68.32a28,28,0,0,0,3.15-2.73,29.64,29.64,0,0,0,5.46-10.51,8.07,8.07,0,0,1,.64-1.78,6.46,6.46,0,0,1,1.24-1.17c.22.47.66,1,.61,1.41-.42,4.09-.92,8.17-1.4,12.25-.06.51-.19,1-.33,1.79,1.45-.58,2.68-1.18,4-1.56a8.86,8.86,0,0,1,3-.36c1,.06,1.31.81.6,1.54a6.09,6.09,0,0,1-2.4,1.76c-4.74,1.35-7.31,4.39-9.21,8.9a43.58,43.58,0,0,1-14.23,18.32,19.26,19.26,0,0,1-4.15,2.37c-1.86.76-3.58-.32-3.35-2.27a20.71,20.71,0,0,1,1.76-6.65c3.45-7,9-12.31,15.38-16.77,1.84-1.28,3.79-2.4,5.67-3.62.44-.28,1.07-.59,1.18-1,1.05-3.9,2-7.82,2.77-11.71-1.69,2.89-3.26,5.86-5.1,8.65a12.81,12.81,0,0,1-3.39,3.33,3.5,3.5,0,0,1-2.91.53A3.28,3.28,0,0,1,270,160c.2-3.16.69-6.29,1.07-9.44,0-.2.06-.4.14-1-1.3,1.83-2.27,3.45-3.49,4.85a25.34,25.34,0,0,1-4.46,4.29c-2.39,1.66-4.82.39-5.25-2.49a11.72,11.72,0,0,0-.58-2.65c-.57,1.79-1.13,3.58-1.72,5.37a4.57,4.57,0,0,1-.56,1.3,3.62,3.62,0,0,1-1,.67c-.13-.37-.43-.77-.36-1.09.32-1.33.76-2.62,1.15-3.93.86-2.93,1.77-5.85,2.53-8.81a14.27,14.27,0,0,0,0-3.19,8.85,8.85,0,0,0-1.27.75c-2.51,2.36-4.63,4.93-5.46,8.39a33.2,33.2,0,0,1-2,5.5c-.21.49-1,.75-1.51,1.11-.11-.59-.45-1.27-.28-1.77.69-2,1.66-3.89,2.29-5.9a42.67,42.67,0,0,0,1.21-5.52,5.1,5.1,0,0,0-.31-1.67C246.07,147.13,234.78,165.1,233.95,170.14Zm43.55-2.5-.57-.58c-3.63,2.84-7.38,5.55-10.85,8.57a27.92,27.92,0,0,0-7.71,10.59,24,24,0,0,0-.86,3.53l.56.25C266.83,184.48,272.92,176.7,277.5,167.64Z" transform="translate(-3.07 -2.21)"/><path d="M297.3,174.86c12.49-9,18.33-21.4,19-36.44-.27.33-.57.68-.86,1.05a41.81,41.81,0,0,1-9.61,9.06,21.07,21.07,0,0,1-2.38,1.29c-1.36.68-2.17.21-2.49-1.28.77,1.48,1.75,1.21,2.88.49a37.66,37.66,0,0,0,13.24-15c.66-1.28.69-2.87,1.2-4.24.21-.56.95-.93,1.44-1.38a7,7,0,0,1,.6,1.93,3.56,3.56,0,0,1-.58,1.79c-2,3.23-2,6.86-2.25,10.41-.79,10.27-3.59,19.79-10.78,27.57a63,63,0,0,1-7.08,6.17c-.93.74-2.2,1.32-3.39.35a3.11,3.11,0,0,1-.76-3.52,27,27,0,0,1,1.83-4.71,63.22,63.22,0,0,1,12.71-16.67c.94-.9,1.93-1.89,3.8-1.35-.41.58-.71,1.08-1.09,1.52-3.9,4.57-8,9-11.65,13.76-1.76,2.3-2.7,5.22-4,7.88a2.42,2.42,0,0,0-.11.93C297,174.54,297.14,174.63,297.3,174.86Z" transform="translate(-3.07 -2.21)"/><path d="M301,148.56c.32,1.49,1.13,2,2.49,1.28a21.07,21.07,0,0,0,2.38-1.29,41.81,41.81,0,0,0,9.61-9.06c.29-.37.59-.72.86-1.05-.7,15-6.54,27.39-19,36.44-.16-.24-.27-.32-.27-.4a2.42,2.42,0,0,1,.11-.93c1.28-2.65,2.22-5.58,4-7.88,3.65-4.76,7.75-9.19,11.65-13.76.37-.44.67-.93,1.09-1.52-1.87-.54-2.86.45-3.8,1.35a63.22,63.22,0,0,0-12.71,16.67,27,27,0,0,0-1.83,4.71,3.11,3.11,0,0,0,.76,3.52c1.19,1,2.46.4,3.39-.35a63,63,0,0,0,7.08-6.17c7.19-7.78,10-17.3,10.78-27.57.27-3.56.29-7.19,2.25-10.41a3.56,3.56,0,0,0,.58-1.79,7,7,0,0,0-.6-1.93c-.5.45-1.23.82-1.44,1.38-.52,1.37-.54,3-1.2,4.24a37.66,37.66,0,0,1-13.24,15C302.74,149.76,301.75,150,301,148.56Z" transform="translate(-3.07 -2.21)"/><path d="M323.13,120.43A23.78,23.78,0,0,0,328,117a58.78,58.78,0,0,0,4.39-5.44c0,1,0,1.86,0,2.69,0,1.7.77,2.67,1.92,2.61s2.11-1.39,1.73-3.2l-1.2,2.26-.74-.4c0-1.44-.06-2.88,0-4.32.2-4,2.19-7.57,3.49-11.28a13.48,13.48,0,0,0,.62-2.44c0-.26-.31-.57-.49-.86-.28.19-.7.31-.83.58a32.1,32.1,0,0,0-1.26,3.08c-1.83,5.19-3.71,10.38-7.17,14.77a34.33,34.33,0,0,1-5.21,4.8,1.77,1.77,0,0,1-1.69-.11c-.32-.26-.18-1.05-.25-1.61-.24.57-.56,1.5-.27,1.77C321.56,120.27,322.68,120.69,323.13,120.43Z" transform="translate(-3.07 -2.21)"/><path d="M347.9,103.53c2.09,1.48,4.27,2.83,6.29,4.39,1.41,1.1,1.45,2,.23,3.21a12.68,12.68,0,0,1-9.33,3.52c-.26,1.35.67,1.88,1.72,1.71,3.31-.53,6.47-1.56,8.86-4.07,1.81-1.9,1.71-4-.3-5.66a41.79,41.79,0,0,0-3.93-2.74c-1.92-1.25-4-2.34-5.79-3.69-2.58-1.9-2.37-4.06.64-5.2a26.49,26.49,0,0,1,7.28-1.63c3.75-.28,4.3.48,3.8,4,1.18-2.26.71-4-1.44-4.39a16.12,16.12,0,0,0-11.31,1.65c-2.58,1.45-2.78,3.88-.62,5.92A35.58,35.58,0,0,0,347.9,103.53Z" transform="translate(-3.07 -2.21)"/><path d="M391.76,191.24c-1.51.34-3,.93-4.43,1.4-6.56,2.12-13.07,4.41-19.7,6.25-2.15.6-4.65.14-7,0a1.86,1.86,0,0,1-1.82-2.21,11.26,11.26,0,0,1,1.34-4.16,43.3,43.3,0,0,0,5.92-13.12,2.65,2.65,0,0,1,2.53-2.24q10.21-1.68,20.39-3.56c.79-.15,2.26.22,2.1-1.24,0-.31-1.67-.76-2.47-.61-5.72,1.08-11.43,2.29-17.13,3.49-1.48.31-2.93.76-4.42,1.15.26-2.53.52-4.83.69-7.13,0-.42-.37-.87-.57-1.31-.35.33-.85.6-1,1-1,2.44-2,4.89-2.89,7.37a2.24,2.24,0,0,1-1.72,1.61c-2.05.53-4.08,1.17-6.1,1.82a7.44,7.44,0,0,0-1.41.77l8.49-2.08c-1.31,3.8-2.48,7.25-3.69,10.68-.54,1.54-.79,3.37-1.82,4.51A65.77,65.77,0,0,1,350,200a7.84,7.84,0,0,1-2.91,1.26,2.14,2.14,0,0,1-1.58-.41c-.2-.14-.1-.88.06-1.27a29,29,0,0,1,1.47-3c1.19-2.12,2.5-4.19,3.64-6.34,1-1.83-.12-3.32-2.21-3.14a30.77,30.77,0,0,0-3.17.48,3.68,3.68,0,0,1-3.51-.75c-1.36-1.18-3.11-2-5-1.28a2.37,2.37,0,0,0-1.29,1.59c-.05.39.75,1.15,1.3,1.32a10.31,10.31,0,0,0,3.47.55c1.71-.07,2.05.77,1.87,2.14a20.23,20.23,0,0,1-9.25,14.9,7.14,7.14,0,0,1-1.94.74c-2.57.74-4.29-.35-4.34-3-.06-3.64.13-7.29.21-10.94,0-.94,0-1.88,0-2.82l-.65-.1c-.27.75-.51,1.52-.81,2.26A62.7,62.7,0,0,1,322,200a8.06,8.06,0,0,1-3.72,2.8c-2,.88-3.08,0-3-2.14.07-2.48.3-5,.31-7.45s-1.29-3.18-3.27-1.77a53.06,53.06,0,0,0-5.75,5,25.48,25.48,0,0,0-2.31,3c.13-.66.16-.86.21-1.05,2-7.91,5.18-15.42,8.46-22.88.4-.9,1.57-2.12.23-2.93s-2.13.58-2.85,1.43c-4.44,5.24-8.81,10.53-13.26,15.76-2.71,3.18-5.53,6.28-8.15,9.24-2.27-1.6-4.37-3-6.43-4.54a34.36,34.36,0,0,1-3.76-3c-1.84-1.78-1.8-3.51-.09-5.44a9.35,9.35,0,0,1,10.47-2,2.8,2.8,0,0,1,1.81,2.88c-.06,1,0,2.05,0,3.08l.56,0c0-.9,0-1.79,0-2.69,0-2.4-.9-3.69-3.25-4.42a10.61,10.61,0,0,0-8.38.78c-4.46,2.36-5.06,6.31-1.31,9.6,2.07,1.82,4.45,3.31,6.64,5a28.93,28.93,0,0,1,2.35,2.27c-2.11,2.54-4.12,4.82-6,7.23a38.48,38.48,0,0,0-3.44,5.32c-.35.65,0,1.67,0,2.52a7.13,7.13,0,0,0,2.68-.16,20.06,20.06,0,0,0,7.34-6.53c1.28-1.8,2.26-3.8,1.82-6.08a2.91,2.91,0,0,1,.91-2.8c6.3-6.93,12.54-13.92,18.8-20.89A4,4,0,0,1,310,179c-.83,2.26-1.87,4.33-2.8,6.45a95,95,0,0,0-6.62,20.15,8.51,8.51,0,0,0,.4,2.73,12.81,12.81,0,0,0,1.44-2.23,26.86,26.86,0,0,1,8.12-11.61c1.14-.91,2.39-1.69,3.59-2.53l.51.24c0,.8.05,1.61,0,2.41-.15,2.05-.44,4.1-.52,6.15-.11,2.86,1.68,4.11,4.49,3.27a9.28,9.28,0,0,0,5.66-4.86c.4-.75.78-1.51,1.12-2.17,0,2.27-.07,4.54,0,6.8.13,3.09,2.26,5,4.94,4.45a11.08,11.08,0,0,0,4-1.51c6.09-4.3,9.62-10,9.64-17.68.64-.11,1.43-.25,2.22-.36s1.6-.19,2.39-.26c1.16-.11,1.65.47,1.17,1.52a29.61,29.61,0,0,1-1.52,2.61c-1.29,2.19-2.71,4.32-3.82,6.6-1,2.09.4,3.77,2.71,3.28a12.39,12.39,0,0,0,3.85-1.49c2-1.22,3.83-2.68,5.81-4.1a4.22,4.22,0,0,0,3.32,3.86,15.71,15.71,0,0,0,8.75.16c5.14-1.25,10.23-2.7,15.3-4.23a85.82,85.82,0,0,0,8.4-3.15c.54-.23.78-1.14,1.16-1.73C393,191.52,392.34,191.11,391.76,191.24Z" transform="translate(-3.07 -2.21)"/><path d="M286.75,162.56a6.09,6.09,0,0,0,2.4-1.76c.71-.73.39-1.48-.6-1.54a8.86,8.86,0,0,0-3,.36c-1.29.38-2.52,1-4,1.56.15-.77.27-1.27.33-1.79.49-4.08,1-8.16,1.4-12.25,0-.44-.4-.94-.61-1.41a6.46,6.46,0,0,0-1.24,1.17,8.07,8.07,0,0,0-.64,1.78,29.64,29.64,0,0,1-5.46,10.51,28,28,0,0,1-3.15,2.73l-.68-.32c0-1.28-.1-2.57,0-3.84.44-4.88.4-9.83,2-14.55.15-.44-.2-1-.32-1.58-.36.37-.85.69-1.05,1.13-.91,2-1.6,4.15-2.63,6.11-1.72,3.29-3.56,6.56-6.68,8.81-1.87,1.35-3.6.66-4-1.58-.5-3-1.17-6-.22-9a5.65,5.65,0,0,0,0-2.66c-.39-2-1.73-2.42-3.23-1.1-1.15,1-2.14,2.18-3.32,3.41-.13-.7-.23-1.3-.36-1.9-.43-1.95-1.66-2.45-3.24-1.21a15.7,15.7,0,0,0-2.71,2.7c-5.23,6.79-8.59,14.55-11.8,22.38a4.64,4.64,0,0,0-.1,1.42c.84-5,12.13-23,16.3-25.38a5.1,5.1,0,0,1,.31,1.67,42.67,42.67,0,0,1-1.21,5.52c-.64,2-1.6,3.91-2.29,5.9-.17.5.17,1.18.28,1.77.52-.36,1.29-.62,1.51-1.11a33.2,33.2,0,0,0,2-5.5c.83-3.47,2.95-6,5.46-8.39a8.85,8.85,0,0,1,1.27-.75,14.27,14.27,0,0,1,0,3.19c-.76,3-1.67,5.88-2.53,8.81-.39,1.31-.83,2.61-1.15,3.93-.08.32.23.73.36,1.09a3.62,3.62,0,0,0,1-.67,4.57,4.57,0,0,0,.56-1.3c.58-1.79,1.15-3.58,1.72-5.37a11.72,11.72,0,0,1,.58,2.65c.43,2.88,2.86,4.15,5.25,2.49a25.34,25.34,0,0,0,4.46-4.29c1.22-1.4,2.19-3,3.49-4.85-.08.59-.11.79-.14,1-.38,3.14-.86,6.28-1.07,9.44a3.28,3.28,0,0,0,1.15,2.67,3.5,3.5,0,0,0,2.91-.53,12.81,12.81,0,0,0,3.39-3.33c1.84-2.79,3.42-5.76,5.1-8.65-.77,3.89-1.72,7.81-2.77,11.71-.11.41-.74.71-1.18,1-1.88,1.22-3.84,2.33-5.67,3.62-6.38,4.46-11.93,9.74-15.38,16.77a20.71,20.71,0,0,0-1.76,6.65c-.23,1.95,1.49,3,3.35,2.27a19.26,19.26,0,0,0,4.15-2.37,43.58,43.58,0,0,0,14.23-18.32C279.44,166.95,282,163.91,286.75,162.56Z" transform="translate(-3.07 -2.21)"/><path d="M423.73,145.65c-5.87.51-11.73,1.22-17.61,1.64-2.74.2-5.52-.07-8.55-.13a14.32,14.32,0,0,0,.88-2.09,29.6,29.6,0,0,0,1.17-6.29,3.08,3.08,0,0,0-4.43-2.71c-2.85,1.14-4.19,3.5-4.53,6.43-.27,2.32.55,3.46,3.28,4.84.23.12.44.28.8.5a14.6,14.6,0,0,1-6,4.51c-2.25.83-4,0-4.27-2.36a21.46,21.46,0,0,1-.05-7.24A111.23,111.23,0,0,1,388,131.12c.14-.42.93-.8,1.46-.87,3-.41,6-.65,8.93-1.07q7.79-1.11,15.56-2.4a6.67,6.67,0,0,0,2-1.16,6.78,6.78,0,0,0-2.2-.44c-5.61.84-11.2,1.76-16.8,2.68-2.72.45-5.43,1-8.37,1.48.28-.92.5-1.56.67-2.22.52-2.1,1.06-4.2,1.5-6.32.07-.33-.35-.75-.55-1.13-.36.23-.91.37-1.06.7a23.67,23.67,0,0,0-1,2.84c-.59,1.86-1.11,3.74-1.78,5.58a1.86,1.86,0,0,1-1.17,1.07c-2,.32-4,.47-6,.72-1.1.13-2.2.32-3.3.48l0,.2,9.5-.45c-.93,3.37-1.69,6.67-2.77,9.86a23.86,23.86,0,0,1-5.06,9.28c-.54.56-1.53,1.24-2.11,1.09s-1.15-1.25-1.23-2c-.33-2.83-.46-5.68-.68-8.52,0-.56-.17-1.12-.25-1.68l-.53-.06a16.59,16.59,0,0,0-.75,2,17.68,17.68,0,0,1-4,8,19.65,19.65,0,0,1-2.51,2l-.37-.29a14.29,14.29,0,0,1,.18-2.16c.65-2.77,1.45-5.51,2-8.3a7.86,7.86,0,0,0-.45-2.69,8.08,8.08,0,0,0-2.42.79c-1.48,1.1-2.8,2.4-3.86,3.33a48.64,48.64,0,0,0-4.53-3.37c-1.49-.87-3.28-1.1-4.61.3a5.05,5.05,0,0,0-1.36,5.4,4.12,4.12,0,0,0,4.13,2.92A25.23,25.23,0,0,0,358,146l-1.74,2.19.3.23,2.34-2.63a8.57,8.57,0,0,1-4.32,6.87,4.65,4.65,0,0,1-4.88.31c-1.64-.9-1.76-2.53-1.86-4.13a6.56,6.56,0,0,1,.09-1.27c.46-3.41.93-6.82,1.43-10.5a6.18,6.18,0,0,0-1.82,1.14c-1.46,1.94-3.23,3.82-4.07,6-1.4,3.64-2.16,7.52-3.16,11.15a15,15,0,0,1-.57-2.57c-.27-4.06-.43-8.13-.68-12.19a13.59,13.59,0,0,0-.45-2.09l-.7,0c-.84,2.57-1.65,5.15-2.54,7.7a16.18,16.18,0,0,1-4,7,32.57,32.57,0,0,1,.59-4.69c.27-1.71.52-3.42.66-5.14,0-.44-.36-.92-.57-1.38l-.57,0a19.16,19.16,0,0,0-.69,3.12,11.92,11.92,0,0,1-4.94,9.23,13.3,13.3,0,0,1-4.74,2.11c-1.89.46-3.1-.95-2.37-2.7a24.44,24.44,0,0,1,2.88-5.25c2.36-3.16,5.68-5.26,9.06-7.22a28.26,28.26,0,0,1,4-1.54,12.17,12.17,0,0,0-3,.46,36.13,36.13,0,0,0-4.76,2.58c-4,2.52-7.58,5.39-9.34,9.94-1.3,3.37.41,5.55,4.07,5.18,3.19-.33,5.53-2.12,7.59-4.37l.86-1,1.18,1.74c.57-.41,1.36-.7,1.67-1.25,1.29-2.3,2.49-4.66,3.62-7,.57-1.2.94-2.5,1.41-3.75.35,2.64.21,5.23.4,7.79a47.58,47.58,0,0,0,1.14,6.51c.08.37.72.63,1.11.94a4,4,0,0,0,.72-1.13c.28-1.23.49-2.48.67-3.73a26.16,26.16,0,0,1,6.57-13.91c-.46,2.11-.92,3.77-1.18,5.47a39.24,39.24,0,0,0-.45,5.36c0,3.75,3,5.91,6.62,4.84a10.7,10.7,0,0,0,7.3-10c0-.4,0-.94.2-1.18,1.68-1.73,3.43-3.41,5.16-5.1l.52.24c-.3,1.34-.55,2.7-.9,4-.57,2.19-1.3,4.35-1.76,6.56a1.74,1.74,0,0,0,2.89,1.91,17.81,17.81,0,0,0,3.25-3.24,40.38,40.38,0,0,0,2.48-4.1c.07.87.1,1.44.16,2a32.24,32.24,0,0,0,.62,4.7c.56,2.08,2.24,2.59,4,1.27a16.57,16.57,0,0,0,2.55-2.62c.68-.83,1.22-1.77,1.86-2.72a43.94,43.94,0,0,0,.79,4.66,4.61,4.61,0,0,0,6,3.32c3.08-.81,5.35-2.81,7.47-5a2.06,2.06,0,0,1,1.41-.56c4.07.16,8.13.6,12.19.55,4.34-.05,8.67-.51,13-.86a17.35,17.35,0,0,0,8.46-2.65A51,51,0,0,0,423.73,145.65Z" transform="translate(-3.07 -2.21)"/><path d="M267.29,78.22q-3.48,18.28-7,36.56c-.9,4.72-1.79,9.44-2.6,14.17-.08.47.4,1,.62,1.55.46-.39,1.15-.69,1.33-1.18a31,31,0,0,0,1.47-5.17A67.77,67.77,0,0,1,271,98.88c.38-.6.84-1.16,1.37-1.89.23.52.47.8.47,1.08,0,2.31,0,4.62-.15,6.92-.42,5.31-1,10.61-1.41,15.92-.12,1.77.39,3.65,2.42,4.22,1.89.53,3.21-.8,4.1-2.15a42.3,42.3,0,0,0,3.92-7.06c1.21-2.95,1.95-6.08,2.89-9.13.06,3.36-.2,6.71-.3,10.06-.07,2.52,0,5.06.16,7.58a1.58,1.58,0,0,0,1,1.13c.81.14,2.14-1.56,2.17-2.72l-2,1.8c0-.85,0-1.35,0-1.86,0-6.62,0-13.23,0-19.85a9.62,9.62,0,0,0-.4-1.93l-.66-.06a17.11,17.11,0,0,0-1.08,2.49c-.71,2.71-1.29,5.45-2,8.16a28.39,28.39,0,0,1-4.83,10.79,8.49,8.49,0,0,1-2.46,1.51c-.39-.86-1.16-1.73-1.12-2.57.27-5.8.78-11.59,1-17.39a30.66,30.66,0,0,0-.44-6.74c-.34-1.92-1.7-2.23-3.12-.84a18.07,18.07,0,0,0-2.63,3.38c-1,1.61-1.8,3.33-2.69,5l-.25-.11c0-.31,0-.63.07-.94.62-4.71,1.31-9.42,1.85-14.14.51-4.41.85-8.83,1.32-13.24.06-.58.3-1.41.72-1.63,1.46-.74,3.06-1.2,4.54-1.9A6.53,6.53,0,0,0,275,71.41c-.53-.19-1.09-.58-1.59-.53-1.47.17-2.91.51-4.59.83l.42-3-.46-.34c.6,3.76-2.11,4.15-4.46,4.9l-.15.06c-8.54,3.67-17,7.46-25.65,11-5.71,2.33-11.57,4.32-17.39,6.36a29.1,29.1,0,0,1-4.35.84l.14.49c17.75-2.89,33.68-11.24,50.69-16.73C267.5,76.27,267.47,77.26,267.29,78.22Z" transform="translate(-3.07 -2.21)"/><path d="M245.13,102.45c-1.29,8.35-2.48,16.72-3.73,25.08-.38,2.56-.85,5.1-1.17,7.67-.05.41.49.9.75,1.35.46-.27,1.09-.44,1.35-.85a5.46,5.46,0,0,0,.72-2.08c.68-4.65,1.47-9.3,1.92-14,1-10.86,1.91-21.74,2.84-32.61a1.81,1.81,0,0,0-.1.35C246.83,92.4,245.91,97.41,245.13,102.45Z" transform="translate(-3.07 -2.21)"/><path d="M248.08,86.39h-.22l-.05.63C247.89,86.82,248,86.61,248.08,86.39Z" transform="translate(-3.07 -2.21)"/><path d="M298.76,108.23c1.71,1.19,3.56,2.17,5.23,3.4,1.52,1.12,1.48,2,0,3.19a18.39,18.39,0,0,1-7.9,3.32c-.16,0-.36-.09-.88-.23l3.75-3.84c-2-.07-4.54,2-4.87,3.62-.26,1.25.39,2.15,1.75,2a15.74,15.74,0,0,0,10.06-4.74,2.66,2.66,0,0,0-.29-4.08,23.62,23.62,0,0,0-3.09-2.26c-2.11-1.35-4.39-2.48-6.35-4-2.62-2-2.41-4.45.48-6.11a11.48,11.48,0,0,1,9.28-1.11,1.74,1.74,0,0,1,1.45,2.09c-.15,1.52-.27,3-.4,4.55a18.83,18.83,0,0,0,1.11-5.11,2.69,2.69,0,0,0-1.24-2c-3.08-1.78-9.31-1-12,1.34-2.19,1.91-2.48,4.46-.47,6.54A29,29,0,0,0,298.76,108.23Z" transform="translate(-3.07 -2.21)"/><path d="M345.09,114.65a12.68,12.68,0,0,0,9.33-3.52c1.22-1.18,1.18-2.11-.23-3.21-2-1.57-4.2-2.91-6.29-4.39a35.58,35.58,0,0,1-3.94-3c-2.16-2-2-4.47.62-5.92A16.12,16.12,0,0,1,355.9,93c2.16.43,2.62,2.13,1.44,4.39.5-3.51-.05-4.27-3.8-4A26.49,26.49,0,0,0,346.27,95c-3,1.14-3.22,3.29-.64,5.2,1.84,1.36,3.87,2.45,5.79,3.69a41.79,41.79,0,0,1,3.93,2.74c2,1.67,2.11,3.76.3,5.66-2.39,2.51-5.54,3.54-8.86,4.07C345.75,116.53,344.82,116,345.09,114.65Z" transform="translate(-3.07 -2.21)"/><path d="M334.83,115.87l1.2-2.26c.38,1.81-.62,3.13-1.73,3.2s-1.87-.91-1.92-2.61c0-.82,0-1.65,0-2.69A58.77,58.77,0,0,1,328,117a23.78,23.78,0,0,1-4.85,3.47c-.45.26-1.57-.15-2.07-.6-.3-.27,0-1.2.27-1.77.07.56-.07,1.36.25,1.61a1.77,1.77,0,0,0,1.69.11,34.33,34.33,0,0,0,5.21-4.8c3.46-4.38,5.34-9.58,7.17-14.77a32.11,32.11,0,0,1,1.26-3.08c.12-.26.54-.39.83-.58.17.29.53.61.49.86a13.48,13.48,0,0,1-.62,2.44c-1.31,3.72-3.29,7.24-3.49,11.28-.07,1.44,0,2.88,0,4.32Z" transform="translate(-3.07 -2.21)"/><path class="cls-1" d="M288.08,203.42c-.59,5.17-4.39,7.79-8.39,10.26C281.67,209.62,284.93,206.57,288.08,203.42Z" transform="translate(-3.07 -2.21)"/><path class="cls-1" d="M336.54,187c1.48-.79,2.68-.07,3.86.75l-.08.44-3.89-.6Z" transform="translate(-3.07 -2.21)"/><path class="cls-1" d="M396,146.54c-2.11-.75-3.92-1.17-4.1-3.38s1.54-5.1,3.42-5.83c1.62-.63,3,.48,2.6,2.37C397.51,141.95,396.74,144.13,396,146.54Z" transform="translate(-3.07 -2.21)"/><path class="cls-1" d="M355.18,145.55c-2.28-.11-3.38-.78-3.89-2.27-.42-1.22.14-3.43,1.12-4a2.22,2.22,0,0,1,1.5-.37,6.48,6.48,0,0,1,4.66,3.31,1.63,1.63,0,0,1-.3,1.55A30.19,30.19,0,0,1,355.18,145.55Z" transform="translate(-3.07 -2.21)"/><path class="cls-1" d="M277.5,167.64c-4.58,9.06-10.67,16.84-19.42,22.36l-.56-.25a24,24,0,0,1,.86-3.53,27.92,27.92,0,0,1,7.71-10.59c3.47-3,7.22-5.73,10.85-8.57Z" transform="translate(-3.07 -2.21)"/><path class="cls-2" d="M337.57,93.4a1.19,1.19,0,0,0,0-2.38,1.19,1.19,0,0,0,0,2.38Z" transform="translate(-3.07 -2.21)"/><path class="cls-2" d="M285.43,96.26a1.19,1.19,0,0,0,0-2.38,1.19,1.19,0,0,0,0,2.38Z" transform="translate(-3.07 -2.21)"/><path class="cls-2" d="M372,130.9a1.47,1.47,0,0,0-1.67.71,1.29,1.29,0,0,0-.12.92,1.22,1.22,0,0,0,.55.71,1.23,1.23,0,0,0,1.65-.43q.28-.59-1.05.39a1.23,1.23,0,0,0,1.48-.83,1.21,1.21,0,0,0-.84-1.46Z" transform="translate(-3.07 -2.21)"/><path class="cls-2" d="M326.14,183.13a1.55,1.55,0,0,0-1.27.17,1.59,1.59,0,0,0-.74,1.28,1.2,1.2,0,0,0,1.21,1.19,1.23,1.23,0,0,0,1.21-1.19.89.89,0,0,1-.53.79.44.44,0,0,1-.33,0q-.38,0-.19,0a1.19,1.19,0,1,0,.64-2.3Z" transform="translate(-3.07 -2.21)"/></g><g id="tee"><path class="cls-3" d="M130.78,123.26c-1.14-9.1-2.68-18.19-2.12-27.38a17.51,17.51,0,0,1,16.49-16.18c3.84-.27,7.9-2.21,11.73.63-1.76,2.06-5.45-.93-6.53,2.85,4.32-.9,6.44,2.44,9.17,4.46,1.19.88,1.81,2.09,3.84,1.6s3.1,1.19,1.67,2.88-.85,3.14-.32,4.94c1.68,5.69,2.54,11.5,1.07,17.41-1.57,6.29-6.85,9.16-13,7.18a29,29,0,0,0-7.55-1.85c-2-.09-2.77.38-2.59,2.61.46,5.89.64,11.79.92,17.69a28.88,28.88,0,0,1-1.45,10c-1.85,5.94-6.09,8.12-11.66,5.47-1.84-.88-2.58-.55-3.94.59-7.14,6-15.49,9.72-24.43,12.05-5.53,1.44-8.85-1.42-9-7.17,0-1.84-.06-3.68-.09-5.51-.18-2.66,1.84-3.78,3.56-5.1,2.55-6.49,5.52-13.7,1.57-17.92-.47,2.13.57,4.5-1.1,6.4-2.16-.19-2.68-2.07-3.15-3.56A46.31,46.31,0,0,1,91.55,124c1-3.1,2.18-6.15,2.87-9.31s-.1-6.3,1.17-9.49c-1.91.3-2.43,1.91-4,2.77,1.13-3.54,5.48-5,4.46-9.75,1.34,1.2.56,3.84,3,2.06,3.38-2.51,4.15-2,4.32,2.38.09,2.32,1.06,4.37,1.68,6.5.89,3.06-.48,6.7-.29,10.06.46,8-.8,15.88-.57,23.83,0,1.61.81,2.52,2.56,1.66,3.5-1.72,7.06-3.34,10.47-5.23,2.66-1.47,3.58-3.73,2-6.62-1.24-2.25-1.29-5.36-4.63-6.08-1.18-.25-1-1.43-1-2.31a5.26,5.26,0,0,0-1.16-3.7c-1.52,1.48-1.28,3.65-2.11,5.38-.54,1.13-1,2.82-2.69,2.13-1.5-.59-1.3-2.08-.88-3.42a17,17,0,0,1,.53-1.87,18.35,18.35,0,0,0,.53-15.05,5.06,5.06,0,0,1,1.3-5.79c2.85-2.65,5.1-6.47,10.51-6.24-2.71,1.39-2.14,3.48-2.12,5.46,0,5,0,9.94,0,14.91,3.15-.1,4.06-1.13,3.49-4.61a65.35,65.35,0,0,1-1-14.91c.07-1.06-.78-2.67,1.09-2.73,1.42,0,1.7,1.45,1.92,2.59,1.13,6,1.09,12,1.62,18,1,11.3,1.42,22.67,3.68,33.85.08-8.14,1.31-16.14,2.5-24.15a3.07,3.07,0,0,1,1.08,3.18c-.49,4.34.68,8.6.58,12.86-.08,3.44.94,4.53,4.15,3.87,1.66,4.56-1.84,6.21-4.87,8.13,3.66,1.9,6.27.78,7.42-3.1a32.17,32.17,0,0,0,.8-12.88c-.26-2.3-.7-4.54,0-6.4.09.45-.15,1-1.15,1.12-3.46-2.1-3.06-5.65-3.14-8.91,0-1.28.36-2.53-.62-3.61-1.41-7.46.74-14.71.82-21.3-2.45,3.6-2.91,6-2,12.93.36,2.59.89,5.16,0,7.73C132.42,119.48,132.28,121.77,130.78,123.26Z" transform="translate(-3.07 -2.21)"/><path class="cls-4" d="M69.13,157.88c-.07,7.21.75,14.44-.47,21.64-.29,1.7.65,3.35-2.83,1.87-2.35-1-6.06,2.08-7.79,5.23-1.25,2.28-2.39,4.61-3.55,6.94-.49,1-1,2-2.32,1.36s-.4-1.62,0-2.41c.83-1.79,2.84-3.3-.45-5.18-1.33-.76-1.38-3.81-1.14-5.93.54-4.95,1.15-9.89,1.74-14.83.11-.93,1.42-2.08-1.09-2.05-2,0-1.13-1.82-.77-3,1.21-4,2.44-8,3.64-12,.36-1.21,1-2.42-1.07-3-1.52-.4-1.07-2-.74-3,1.06-3.47,2.25-6.91,3.39-10.36.61-1.85,1.51-3.66.77-6.12-1,2.21-1.8,4.18-2.75,6.07-.55,1.1-1.08,2.83-2.75,2-1.31-.66-.52-2.1-.22-3.2a6.67,6.67,0,0,0,.38-2.42c-4.77,3.12-10,5.26-13.52,10.25a11.73,11.73,0,0,1-7.74,4.41c-2,.3-2.08-2-2-3.54.15-4.54.46-9.07.7-13.6A1,1,0,0,1,30,126.9c.84-4.63,5.28-6.8,7.25-10.65a13.7,13.7,0,0,0,.63-1.79c.66-2.7,3.64-2.72,5.13-4.45a8.38,8.38,0,0,1,1.95-.94c2.92.33,5-1.09,6.68-3.27,1.46-.91,3-.09,4.52-.28,1.35-.06,2.47-.89,3.75-1.13,2.53-.47,4.85,1.06,4.51,3.5-.57,4.14.32,8.43-1.35,12.43-.56,1.49-1.11,3-1.68,4.49a60.71,60.71,0,0,1-3.53,9.47c-2.53,5-1.47,9.55,2.75,13.39a8.81,8.81,0,0,1,3.18,5.2c0,3.39-.91,6.65-1.59,10.47,2.18-2.52.84-5.4,1.94-7.65,2-1.49,3.09.31,4.45,1.18A2.61,2.61,0,0,1,69.13,157.88Z" transform="translate(-3.07 -2.21)"/><path class="cls-5" d="M173.14,7.5C150.29,18.57,125.67,23.57,101,28A107.06,107.06,0,0,1,52,25.9a21.18,21.18,0,0,1-7.08-3.16c-.17-.68-.06-1.07.75-.72,14.22,5.12,28.82,5.7,43.62,3.56,5.51-.8,11-1.88,16.45-3.18a475.83,475.83,0,0,1-62.37-7.18c6-1.05,11.6,0,17.08.66,13.07,1.65,26.18,1.77,39.29,1.64,21.19-.21,41.46-5.58,61.58-11.59,3.26-1,6.52-1.91,9.75-3,1-.33,1.93-1.26,2.85-.35s.48,1.91-.05,2.89a18.26,18.26,0,0,0-.82,2.06Z" transform="translate(-3.07 -2.21)"/><path class="cls-6" d="M130.78,123.26c.54-1.81-.85-4.58,2.5-5,.94-.52,1.44.34,2.1.68s2.58-.7,1.63,1.76c-1.38,3.58-.06,7,1.8,10.19a17.25,17.25,0,0,1-2.47,13.4c-.9.53-1.8,1-2.68,1.6-1.63,1-2.7.51-2.38-1.33.64-3.65-.24-7-.76-10.59-.44-3,.58-6.4.26-9.65Q130.78,123.79,130.78,123.26Z" transform="translate(-3.07 -2.21)"/><path class="cls-7" d="M67,117.38l-2.24,1.09c-1.82-2.76-.61-5.82-.83-8.73-.07-.88.35-1.78.28-2.72-.26-3.64-.91-4.22-4.39-2.91-1.4.53-3.76-.18-4.06,2.35L52,106.38c-2,1.83-4.54,2.45-7.07,3.09a1.76,1.76,0,0,1-1.75.95,22.19,22.19,0,0,1-6.21,3.1,3.28,3.28,0,0,0-.7.06c-.83.46-.88,0-.79-.66a98.81,98.81,0,0,1,23.53-12.31c5.43-2,7.06-.67,7.21,5C66.37,109.52,66.76,113.45,67,117.38Z" transform="translate(-3.07 -2.21)"/><path class="cls-8" d="M173.08,7.55v.11l0-.15Z" transform="translate(-3.07 -2.21)"/><path class="cls-8" d="M243.05,297.31c-.55-1.93-2.68-1-4.15-.81-10.68,1.31-21.34,2.89-32,4-20.39,2-114.86,14.79-186.59-2.15-5.81-1.37-7.24-6.17-6.38-12.07.2-1.37.33-2.75.52-4.27a95.15,95.15,0,0,0,21.1,4.47,180.67,180.67,0,0,0,22,1.41c34.56-.37,69.1-1.51,103.62-3.24,21.12-1.06,42.16-2.73,63.14-5.31,2.26-.28,2.9.28,3,2.59.19,3.62-.92,11.51,3.4,10.83,3.16-.5,0-5.23-.23-7.42-.57-5.95-.56-5.93,5.24-6.1.62,0,2.17.52,1.91-.68-.32-1.51-2.25-.71-3.26-.43-3.31.9-4.1-.25-4.23-3.59-.39-10.08-.84-20.18-2.86-30.13-1.93-9.49-4.21-18.94-5.41-28.52A302.92,302.92,0,0,0,201.41,137c-7-16.87-13.77-33.84-20-51,2.85-1.34.47-2.83.12-4.26-.3-2-1-3.92-1-6,.18-22.75.26-45.49-1.93-68.25l-1.1,58.72a9.87,9.87,0,0,1-.18,2.19,10.09,10.09,0,0,0-.56-1.39c-3.87-11-2.56-23.09-2.58-34.75,0-8.17-.74-16.34-1.15-24.5A7.28,7.28,0,0,0,172.74,9c-1.34,14.66-.94,29.36-.59,44,.18,7.64.66,15.39,3.82,22.6,2.31,2.47,2,6.08,3.83,8.76a13.57,13.57,0,0,0,.32,2.3c5.21,16.62,11,33,16.74,49.48,5.92,16.91,12.41,33.68,15.21,51.51a558,558,0,0,0,11.44,56.6c2.92,11,3.2,22.47,3,34.07-4.06-1.15-8-.48-11.94-.82a385,385,0,0,0-57.09-.21c-16,1-32,2.4-47.94,3.52q-27.12,1.9-54.25,3.62c-12.61.79-40.72-3.23-40.27-5.3,1.76-8.18,2-16.46,3.38-24.75a180.83,180.83,0,0,0,.94-47.35c-1.8-17.9-4.07-35.73-3.61-53.8.34-13.48-.07-27-3-40.23-.4-1.81-.94-4.09,1.32-5.72C21.54,101.91,25.6,94,29.22,85.77c8.4-19.14,10.71-69.74,8-67.32-3.37,3-21.1,93.3-23.8,86.08-1.48-4,3.25-31.85,5.71-40.45C22.34,52.87,34.79,27.41,33.57,27,31.64,26.75,17.28,56.07,14,72.7c-2.72,14-1.93,28.4-4.49,42.43-.11.61.64,1.63,1,1.07,1.25-1.82,1.09-.92,1.23.4a177.82,177.82,0,0,1,1,28.66c-.37,7.35-.79,14.69-1,22-.43,17.92,2.27,35.64,3.63,53.44,1.3,17-.78,37.35-8.32,46-4,4.62-4.25,9.24-4,13.12.16,2.72,2.86,7.41,4.7,4.78.66-2,5.72-27.68,8.19-28.17,2.61-.79-3.6,19.95-4.63,29.26-.71,6.34,1.2,11.52,6.81,14.56a64.41,64.41,0,0,0,12.33,5c16.09,4.82,32.7,6.45,49.34,6.77,42.42.84,84.89,1.91,127.13-3.69,11.18-1.48,22.26-3.59,32.76-7.94C241.16,299.83,243.7,299.56,243.05,297.31Z" transform="translate(-3.07 -2.21)"/><path class="cls-9" d="M30,126.9l-1.55.07c-.46-2.94,0-5.67,2.49-9A21.89,21.89,0,0,0,30,126.9Z" transform="translate(-3.07 -2.21)"/><path class="cls-10" d="M37,113.52a12.9,12.9,0,0,1,6.21-3.1c-.89,2.5-3.83,2.31-5.31,4Z" transform="translate(-3.07 -2.21)"/><path class="cls-11" d="M45.7,22l-.75.72a6.22,6.22,0,0,1-3.71-5.21C42.69,19.08,43.88,20.86,45.7,22Z" transform="translate(-3.07 -2.21)"/><path class="cls-12" d="M35.52,112.93l.79.66c-1.66,1.52-3.58,1.88-6.16,1.29Z" transform="translate(-3.07 -2.21)"/><path class="cls-13" d="M145.49,117.39c4.54-4.74,11.68-5.33,16.36-10.93-3.1.2-4.75,1.74-6.63,2.74a2.3,2.3,0,0,1-2.59.1c-1-.89.17-1.69.63-2.3,2.57-3.42,5.25-6.77,8.34-10.7,2.71,7.14,3.45,13.62,1.46,20.2-.77,2.56-3.27,1.68-5.22,2.22C153.22,120,149.66,117.84,145.49,117.39Z" transform="translate(-3.07 -2.21)"/><path class="cls-14" d="M159.86,93.35c.95,1.68-.47,2.23-1.15,3.06-2.49,3-5,6-7.5,9.06-.85,1-1.8,2.27-1.31,3.54,1.15,2.92-.84,3.46-2.86,4.21-1-1,1-3.44-1.36-3.66-1.58-.15-2.31,1.44-3.1,2.64a25.75,25.75,0,0,0-3.33,5.91c-1.59,0-1.22-1.06-1.16-1.69.58-5.75-.5-11.85,3.53-16.87,1.11-1.38,2.1-2.9,4.44-3.63a74.48,74.48,0,0,1-3.9,9.72" transform="translate(-3.07 -2.21)"/><path class="cls-15" d="M103.25,155.49c.21-.74.7-1.54.57-2.21-1.18-6.24,3-7.65,7.66-9.08a75.64,75.64,0,0,0,8.35-3.72c.22,4.17,2.48,8.29-.9,12.45-1.14-4-6.68-5.38-9.83-2.65a74.22,74.22,0,0,0-5.33,5.62Z" transform="translate(-3.07 -2.21)"/><path class="cls-16" d="M135.38,119c-1.23,1.42-1.42-.39-2.1-.68-.26-4.29-.24-8.63-.87-12.86-.7-4.72,1.06-8.08,4.77-11Z" transform="translate(-3.07 -2.21)"/><path class="cls-17" d="M111.57,151.72l-3.47,6.17,4.67,1.86a23.21,23.21,0,0,1-12.64,5.42,2.32,2.32,0,0,1-2.81-1.6c-.35-1.67,1.51-.28,1.88-1.14,1.09-2.57,4.44-2,5.85-4.41A15.31,15.31,0,0,1,111.57,151.72Z" transform="translate(-3.07 -2.21)"/><path class="cls-18" d="M151.69,85.16c-.91,3.9-1.94,7.31-6.2,8.63-2.77.86-4.33,3.62-6.24,6.54A16.86,16.86,0,0,1,139,92.4c.29-1.35,1-4.22,4-2.54,1.59.87,2.53-1,3.72-1.6C148.47,87.35,150.05,86.2,151.69,85.16Z" transform="translate(-3.07 -2.21)"/><path class="cls-19" d="M96.85,150.28a18.2,18.2,0,0,0,0-11.57c0-2.93,0-5.86,0-9.37,4.81,4.53,5.06,9.25,3.18,14.45-.88,2.43-1.53,4.94-2.31,7.41-.09.27-.23.82-.6.21A3.74,3.74,0,0,1,96.85,150.28Z" transform="translate(-3.07 -2.21)"/><path class="cls-20" d="M101.63,100.82c.15,5.89.69,11.49-2.27,17.76,0-2.62.12-4.29,0-5.94s.66-3.51-1.8-5C95.3,106.33,97.31,102.74,101.63,100.82Z" transform="translate(-3.07 -2.21)"/><path class="cls-21" d="M149.47,96.24c1.38-2.81,2.32-4.69,3.24-6.58,1.69-3.48,2.65-3.52,4.92-.3.71,1,1,1.66-.35,2.39C154.94,93,152.68,94.38,149.47,96.24Z" transform="translate(-3.07 -2.21)"/><path class="cls-22" d="M123.25,131.54c.72,4.57,1.48,9.13,2.11,13.71.14,1-.06,1-3.13,2.79C122,142.45,123.44,137.05,123.25,131.54Z" transform="translate(-3.07 -2.21)"/><path class="cls-23" d="M120.44,129.42c-4.25-5.76-4.26-5.88-1-10.81C120.91,121.06,121,122,120.44,129.42Z" transform="translate(-3.07 -2.21)"/><path class="cls-24" d="M120.6,155.53c.93-1.65,1.77-3.35,2.82-4.92.46-.69,1-1.72,2.08-1.48s.91,1.44,1.3,2.18c.54,1-.31,1.63-1.13,2.1l-4.58,2.68Z" transform="translate(-3.07 -2.21)"/><path class="cls-25" d="M116.19,150.89c3.23,5.89-2.22,5.06-4.94,6.9C111.62,154.34,114.11,152.95,116.19,150.89Z" transform="translate(-3.07 -2.21)"/><path class="cls-26" d="M137.29,85.87c-.58,4-2.23,6.73-5,9.94C133.17,91.67,134.19,88.61,137.29,85.87Z" transform="translate(-3.07 -2.21)"/><path class="cls-27" d="M110.91,110c-1.58-3.37-2.31-6.23,1.92-8.29Z" transform="translate(-3.07 -2.21)"/><path class="cls-28" d="M146.1,82.05c-1.67,1.43-2.86,2.39-4,3.41-.87.79-1.58.69-2.16-.29s.08-1.37.82-1.72A11.55,11.55,0,0,1,146.1,82.05Z" transform="translate(-3.07 -2.21)"/><path class="cls-29" d="M114.27,117.54c-1.53-2.87-.93-5.6.72-8.23Z" transform="translate(-3.07 -2.21)"/><path class="cls-30" d="M97.37,123.27A6.27,6.27,0,0,1,97,117.1Z" transform="translate(-3.07 -2.21)"/><path class="cls-31" d="M96.84,138.71a10.42,10.42,0,0,1-2.71-5.88A21.08,21.08,0,0,0,91.55,124c-1.73-1-2.31-2.69-3.06-4.36-3.17-7.06-10.44-9-16.52-4.23a11.27,11.27,0,0,1-5,2c-.94-.44-1.71,0-2.5.45-1.16.6-1.46,1.92-2.32,2.77l-1.49,4h0c-1.46,3.56-2.72,7.19-4.28,10.73-2.14,4.85-.77,9.5,3.36,13a9,9,0,0,1,3.4,5c.56.72.25,2.18,1.77,2.09l3.61,2.07a1.32,1.32,0,0,0,.55.44A45.25,45.25,0,0,0,93,155.54l3.89-5.26C98.69,146.42,100.2,142.57,96.84,138.71ZM68.79,153.58a.43.43,0,0,0,.06-.57c1.5.61,3.43-.28,4.88,1.05C72,154.06,70.37,152.77,68.79,153.58Z" transform="translate(-3.07 -2.21)"/><path class="cls-32" d="M53.3,185.82q.9-6.71,1.8-13.42c.25-1.85,1.86-2.57,3.18-3.14s3.34-.14,3.11,1.59a30.26,30.26,0,0,1-6.72,15.39Z" transform="translate(-3.07 -2.21)"/><path class="cls-33" d="M55.78,106.45c1-.83-3.41-.61-.36-1.85.24-.1.44-.29.68-.39,8.74-3.67,8.79-3.62,8.61,5.6-.06,2.88,0,5.77.06,8.65-.78.81-1.23,2-2.58,2.13,1.49-4,.42-8.27,1.4-12.31a2.72,2.72,0,0,0-1.35-3c-1-.65-1.93-.28-3,.18S57.53,108.21,55.78,106.45Z" transform="translate(-3.07 -2.21)"/><path class="cls-34" d="M58.11,111.74c-.45,6-3.91,12.24-8.41,14.9A45.5,45.5,0,0,1,58.11,111.74Z" transform="translate(-3.07 -2.21)"/><path class="cls-35" d="M63.2,153.28,65,155.37c-.37,3.62,1.1,7.87-4,10.29C61.24,161.25,62.35,157.29,63.2,153.28Z" transform="translate(-3.07 -2.21)"/><path class="cls-17" d="M30,142.54c.07-3.35-.71-5.87.67-8.4,1.07.57,1,3,3.1,1.46,1.27-.92.84.72.87,1.19C34.8,139.63,32.45,140.52,30,142.54Z" transform="translate(-3.07 -2.21)"/><path class="cls-36" d="M45,109.47A19.56,19.56,0,0,1,52,106.38C50.51,109.3,48.54,111.22,45,109.47Z" transform="translate(-3.07 -2.21)"/><path class="cls-37" d="M42.48,132.06a25.07,25.07,0,0,1-3.92,2.63c-.84.36-.86-.8-.69-1.28.54-1.61,2.48-1.35,3.47-2.41Z" transform="translate(-3.07 -2.21)"/><path class="cls-38" d="M49.68,115.49a8.88,8.88,0,0,1,3.77-5C52.81,112.24,52.58,114.27,49.68,115.49Z" transform="translate(-3.07 -2.21)"/><path class="cls-39" d="M68.63,153.75l0-1c2.8-.59,5.59-1.15,7.9,2C73.44,156.09,71.08,154.42,68.63,153.75Z" transform="translate(-3.07 -2.21)"/><path class="cls-40" d="M86.69,154.45A31.48,31.48,0,0,0,92.61,148C93.17,152.06,91.71,153.65,86.69,154.45Z" transform="translate(-3.07 -2.21)"/><path class="cls-41" d="M79.11,141.07a15.36,15.36,0,0,0,4.53-7.53C79.85,135.31,79.57,138,79.11,141.07Z" transform="translate(-3.07 -2.21)"/><path class="cls-42" d="M74,120.73c-.87,1.89-1.55,3.48-3.53,4.15C71.06,123.22,70.59,120.8,74,120.73Z" transform="translate(-3.07 -2.21)"/><path class="cls-43" d="M64.67,131.61c2.35,1.27-.07,3.61-.1,5.41C63.86,135.2,63.88,131,64.67,131.61Z" transform="translate(-3.07 -2.21)"/><path class="cls-44" d="M76.13,116.77c2.93-.21,4.63-.56,5.83,1.19C80,118.86,78.6,117.67,76.13,116.77Z" transform="translate(-3.07 -2.21)"/><path class="cls-45" d="M62.09,144.69c-2.54.54-2.48-3.8-2.06-7C61.21,140.35,64.78,142.54,62.09,144.69Z" transform="translate(-3.07 -2.21)"/></g></svg>